<svg xmlns="http://www.w3.org/2000/svg" xmlns:xlink="http://www.w3.org/1999/xlink" width="107.658" height="107.658" viewBox="0 0 107.658 107.658"><defs><style>.a{fill:none;}.b{fill:#111416;}.c{fill:url(#a);}.d{fill:#ce342e;}.e{fill:#ffeee6;}.f{fill:url(#b);}.g,.i{fill:#616262;}.g{opacity:0.34;}.g,.i,.k,.m,.o,.r,.t,.u{mix-blend-mode:multiply;}.aj,.ak,.al,.g,.i,.k,.m,.o,.p,.q,.r,.s,.t,.u,.v{isolation:isolate;}.h{fill:url(#c);}.i{opacity:0;}.j{fill:url(#d);}.aj,.k{opacity:0.28;}.k{fill:url(#f);}.l{fill:#961b23;}.m,.r,.t,.u{opacity:0.82;}.m{fill:url(#g);}.aj,.ak,.al,.n,.p,.q,.s{fill:#ec372e;}.o{fill:#070709;opacity:0.25;}.p{opacity:0.46;}.p,.s{mix-blend-mode:hard-light;}.aj,.ak,.al,.q,.v{mix-blend-mode:soft-light;}.r{fill:url(#h);}.s{opacity:0.07;}.t{fill:url(#i);}.u{fill:url(#j);}.v{fill:#81171b;}.w{fill:url(#k);}.x{fill:url(#l);}.y{fill:url(#m);}.z{fill:url(#n);}.aa{fill:url(#o);}.ab{fill:url(#p);}.ac{fill:url(#q);}.ad{fill:url(#r);}.ae{fill:url(#s);}.af{fill:url(#t);}.ag{fill:url(#u);}.ah{fill:url(#v);}.ai{fill:#c82728;}.ak{opacity:0.48;}.al{opacity:0.45;}.am{clip-path:url(#w);}.an{fill:#016938;}.ao{fill:#221f1f;}.ap{fill:#bc202e;}.aq{clip-path:url(#x);}.ar{opacity:0.74;fill:url(#y);}</style><linearGradient id="a" x1="0.5" y1="1" x2="0.5" gradientUnits="objectBoundingBox"><stop offset="0" stop-color="#a1542b"/><stop offset="0.506" stop-color="#a1542b"/><stop offset="0.574" stop-color="#8d5435"/><stop offset="0.694" stop-color="#6d5446"/><stop offset="0.748" stop-color="#513e34"/><stop offset="0.843" stop-color="#251c17"/><stop offset="0.918" stop-color="#0a0706"/><stop offset="0.961"/></linearGradient><linearGradient id="b" x1="26.912" y1="-27.806" x2="26.912" y2="-27.076" gradientUnits="objectBoundingBox"><stop offset="0"/><stop offset="1" stop-color="#c72c28"/></linearGradient><linearGradient id="c" x1="11.707" y1="-31.743" x2="12.632" y2="-31.743" xlink:href="#b"/><linearGradient id="d" x1="13.079" y1="-27.752" x2="14.096" y2="-27.752" xlink:href="#b"/><linearGradient id="f" x1="13.079" y1="-27.718" x2="14.096" y2="-27.718" gradientUnits="objectBoundingBox"><stop offset="0" stop-opacity="0.4"/><stop offset="0.008" stop-color="#090909" stop-opacity="0.447"/><stop offset="0.033" stop-color="#1d1b1b" stop-opacity="0.533"/><stop offset="0.068" stop-color="#282626" stop-opacity="0.584"/><stop offset="0.165" stop-color="#2c2929" stop-opacity="0.6"/><stop offset="0.373" stop-color="#161414" stop-opacity="0.8"/><stop offset="0.654" stop-color="#050505" stop-opacity="0.953"/><stop offset="1"/></linearGradient><linearGradient id="g" x1="-807.492" y1="-563.8" x2="-806.382" y2="-563.8" xlink:href="#f"/><linearGradient id="h" x1="-1184.399" y1="-895.664" x2="-1183.585" y2="-895.664" xlink:href="#f"/><linearGradient id="i" x1="-1164.97" y1="-814.58" x2="-1163.861" y2="-814.58" xlink:href="#f"/><linearGradient id="j" x1="-1709.189" y1="-1293.723" x2="-1708.375" y2="-1293.723" xlink:href="#f"/><linearGradient id="k" x1="6.792" y1="-19.276" x2="7.082" y2="-18.884" xlink:href="#b"/><linearGradient id="l" x1="143.837" y1="-295.46" x2="144.658" y2="-294.686" xlink:href="#b"/><linearGradient id="m" x1="7.156" y1="-30.6" x2="7.89" y2="-30.6" xlink:href="#b"/><linearGradient id="n" x1="300.212" y1="-372.214" x2="301.407" y2="-372.214" xlink:href="#b"/><linearGradient id="o" x1="213.796" y1="-770.634" x2="214.684" y2="-770.634" xlink:href="#b"/><linearGradient id="p" x1="37.146" y1="-55.4" x2="38.604" y2="-55.4" xlink:href="#b"/><linearGradient id="q" x1="7.157" y1="-18.64" x2="7.446" y2="-18.249" xlink:href="#b"/><linearGradient id="r" x1="151.885" y1="-285.776" x2="152.706" y2="-285.001" xlink:href="#b"/><linearGradient id="s" x1="7.549" y1="-29.594" x2="8.283" y2="-29.594" xlink:href="#b"/><linearGradient id="t" x1="316.868" y1="-359.968" x2="318.064" y2="-359.968" xlink:href="#b"/><linearGradient id="u" x1="225.588" y1="-745.366" x2="226.476" y2="-745.366" xlink:href="#b"/><linearGradient id="v" x1="39.212" y1="-53.564" x2="40.67" y2="-53.564" xlink:href="#b"/><clipPath id="w"><rect class="a" width="100.018" height="33.165"/></clipPath><clipPath id="x"><circle class="a" cx="36.56" cy="36.56" r="36.56"/></clipPath><linearGradient id="y" y1="0.5" x2="1" y2="0.5" gradientUnits="objectBoundingBox"><stop offset="0.002" stop-color="#ea2127"/><stop offset="0.946" stop-color="#3d1211"/></linearGradient></defs><g transform="translate(-1591.506 -11293)"><g transform="translate(1591.506 11293)"><ellipse class="b" cx="53.796" cy="53.796" rx="53.796" ry="53.796" transform="translate(0.033 0.033)"/><ellipse class="c" cx="36.56" cy="36.56" rx="36.56" ry="36.56" transform="translate(17.269 17.268)"/><path class="d" d="M837.829,288.927A53.829,53.829,0,1,1,891.658,235.1,53.89,53.89,0,0,1,837.829,288.927Zm0-106.286A52.457,52.457,0,1,0,890.286,235.1,52.516,52.516,0,0,0,837.829,182.642Z" transform="translate(-784 -181.27)"/><g transform="translate(20.16 30.32)"><path class="e" d="M870.516,226.614l.015-.03-.027.013c-.025-.036-.056-.084-.086-.132l.021-.011-.1-.137c0-.015-.007-.026,0-.031.032-.028.532-.3.532-.3s-4.428-6.15-4.417-6.177-.555.281-.591.266a3.358,3.358,0,0,1-.267-.361l-11.079,5.439a1.266,1.266,0,0,0,.073.11l-.259.129-.147-.2-11.061,5.342-.014,0-.046.553c-.144.07-.294.144-.312.151l-.07.1a.243.243,0,0,1-.031-.062l-.418.265-.04-.714a.1.1,0,0,1,.046-.016.4.4,0,0,0,.084-.025.339.339,0,0,0,.034-.014l.019-.009-.006.006a.353.353,0,0,0,.147-.1.2.2,0,0,0,.059-.1l0-.02c.076-.287-.344-.639-.871-.333l-.034.021a.323.323,0,0,0-.036.021c-.783.536.249.6.249.6l.015.715a5.784,5.784,0,0,0-5.908,1.265,5.931,5.931,0,0,0-1.446,2.16l-.006.013c-.011.03-.023.06-.034.089a4.16,4.16,0,0,0-.275,1.534l-.24.155-.222.129c-.241-.342-.39-.554-.388-.559.011-.027-.555.281-.591.266a3.348,3.348,0,0,1-.268-.361L821.442,241.7s.027.042.074.11l-.259.129-.146-.2-11.061,5.342-.014,0-.047.553c-.144.07-.293.143-.312.151l-.1.153L813.835,254l.614-.07.439.554.031-.131h0l-.031.131L835.343,244.4l3.936,5.352-.017-.054,0,.007c.007.025.013.043.013.047l0,0v0l.005,0c.1-.015,3.142-1.451,5.846-2.728l4.155-1.939-.774-2.478c-.65-2.151-1.484-4.947-1.547-5.156l.552-.063.439.554,22.424-11.061.095-.184.068-.034Z" transform="translate(-809.564 -219.714)"/><g transform="translate(0 0)"><g transform="translate(23.471 11.561)"><path class="f" d="M840.794,248l4.761,6.445-2.535-7.732-3.7-4.616Z" transform="translate(-839.321 -236.005)"/><path class="g" d="M845.555,254.478l-2.535-7.762-3.7-4.616,1.473,5.9" transform="translate(-839.321 -236.005)"/><path class="h" d="M848.932,234.372s-9.542,6.055-9.565,6.111,3.7,4.615,3.7,4.615l10.184-4.574S848.913,234.472,848.932,234.372Z" transform="translate(-839.331 -234.372)"/><path class="i" d="M848.932,234.372s-9.542,6.055-9.565,6.111,3.7,4.615,3.7,4.615l10.184-4.574S848.913,234.472,848.932,234.372Z" transform="translate(-839.331 -234.372)"/><path class="j" d="M856.553,249.829c-.023.055-2.357-7.637-2.357-7.637l-10.184,4.574s2.539,7.669,2.534,7.732S856.576,249.773,856.553,249.829Z" transform="translate(-840.312 -236.025)"/><path class="j" d="M856.553,249.829c-.023.055-2.357-7.637-2.357-7.637l-10.184,4.574s2.539,7.669,2.534,7.732S856.576,249.773,856.553,249.829Z" transform="translate(-840.312 -236.025)"/><path class="k" d="M856.553,249.825c-.023.055-2.321-7.652-2.321-7.652l-10.22,4.589s2.539,7.669,2.534,7.732S856.576,249.769,856.553,249.825Z" transform="translate(-840.312 -236.02)"/><path d="M849.568,234.612s-10.21,5.822-10.233,5.878,4.344,2.652,4.344,2.652l9.21-3.095S849.548,234.712,849.568,234.612Z" transform="translate(-839.324 -234.423)"/><g transform="translate(3.943 9.273)"><path d="M844.345,247.168a.132.132,0,0,0,.016.173c.065.061.215.007.162-.033-.137-.1.034-.135-.015-.174A.114.114,0,0,0,844.345,247.168Z" transform="translate(-844.32 -246.338)"/><path d="M844.856,246.923a.132.132,0,0,0,.015.174c.066.06.215.007.163-.034-.137-.1.033-.135-.016-.173A.113.113,0,0,0,844.856,246.923Z" transform="translate(-844.428 -246.286)"/><path d="M845.366,246.677a.132.132,0,0,0,.016.174c.065.06.215.007.162-.034-.137-.1.034-.135-.015-.174A.114.114,0,0,0,845.366,246.677Z" transform="translate(-844.536 -246.234)"/><path d="M845.877,246.431a.131.131,0,0,0,.015.173c.064.061.215.007.162-.034-.137-.1.033-.135-.016-.174A.113.113,0,0,0,845.877,246.431Z" transform="translate(-844.644 -246.182)"/><path d="M846.387,246.185a.132.132,0,0,0,.015.173c.066.061.216.007.162-.033-.137-.1.034-.135-.015-.174A.112.112,0,0,0,846.387,246.185Z" transform="translate(-844.751 -246.13)"/></g><g transform="translate(10.809 5.811)"><path d="M853.062,243.149a.133.133,0,0,0-.008.174c.056.069.212.036.165-.011-.121-.122.052-.129.009-.174A.114.114,0,0,0,853.062,243.149Z" transform="translate(-853.025 -242.029)"/><path d="M853.53,242.954a.132.132,0,0,0-.009.174c.056.069.213.036.166-.011-.122-.122.051-.129.009-.174A.114.114,0,0,0,853.53,242.954Z" transform="translate(-853.124 -241.988)"/><path d="M854,242.759a.132.132,0,0,0-.008.174c.056.069.212.037.165-.011-.121-.122.052-.129.009-.173A.113.113,0,0,0,854,242.759Z" transform="translate(-853.223 -241.946)"/><path d="M854.466,242.563a.131.131,0,0,0-.009.174c.056.069.212.037.165-.011-.122-.122.052-.129.009-.174A.113.113,0,0,0,854.466,242.563Z" transform="translate(-853.322 -241.905)"/><path d="M854.934,242.368a.132.132,0,0,0-.009.174c.056.069.213.036.165-.011-.121-.122.051-.129.009-.174A.113.113,0,0,0,854.934,242.368Z" transform="translate(-853.421 -241.864)"/><path d="M855.4,242.173a.132.132,0,0,0-.009.173c.056.069.213.037.166-.01-.122-.122.052-.129.008-.174A.113.113,0,0,0,855.4,242.173Z" transform="translate(-853.52 -241.823)"/><path d="M855.869,241.978a.131.131,0,0,0-.008.174c.056.069.213.037.165-.011-.122-.122.052-.128.01-.173A.114.114,0,0,0,855.869,241.978Z" transform="translate(-853.618 -241.781)"/><path d="M856.337,241.782a.131.131,0,0,0-.009.174c.056.069.212.037.165-.011-.122-.122.052-.129.009-.174A.113.113,0,0,0,856.337,241.782Z" transform="translate(-853.717 -241.74)"/></g><g transform="translate(3.24 12.806)"><path class="l" d="M844.128,251.977" transform="translate(-843.576 -250.898)"/><path class="m" d="M844.591,251.493a.737.737,0,0,0-.038-.565c-.148-.287-.346-.345-.493-.308-.071.017-.173.117-.274.436-.027.083-.6.058.042.46a.191.191,0,0,1,.06.257l-.089.069.345-.139s.084.255.3.262C844.6,251.968,844.749,251.678,844.591,251.493Z" transform="translate(-843.449 -250.609)"/><path class="n" d="M843.459,251.724c.07.194.242.3.385.242a.362.362,0,0,0,.133-.463c-.07-.194-.242-.3-.386-.241A.362.362,0,0,0,843.459,251.724Z" transform="translate(-843.429 -250.743)"/><path class="o" d="M843.957,251.149l-.347.092a.352.352,0,0,0-.014.474c.187.306.319.27.5.091S844.313,251.2,843.957,251.149Z" transform="translate(-843.447 -250.723)"/><path class="p" d="M843.459,251.726c.069.194.29.323.386.229a.388.388,0,0,0,.088-.4c-.049-.2-.236-.337-.342-.289A.356.356,0,0,0,843.459,251.726Z" transform="translate(-843.428 -250.746)"/><path class="q" d="M844.015,251.1l-.292.119s.222-.041.339.333c0,0,.045.24-.1.339l.333-.2a.384.384,0,0,0,0-.4s.02.266-.046.271C844.25,251.57,844.3,251.2,844.015,251.1Z" transform="translate(-843.49 -250.713)"/><path class="r" d="M844.092,250.634a.639.639,0,0,0-.144.177c-.069.129-.059.236-.113.26-.081.038.055-.04.183.174s.186.261.22.2,0-.612.323-.517C844.67,250.959,844.37,250.529,844.092,250.634Z" transform="translate(-843.509 -250.611)"/><path class="s" d="M844.28,251.2a.552.552,0,0,1,.133.286c-.007.121-.013.191-.061.144s0-.142-.058-.125.018.1-.029.087-.084-.081-.084-.081a.34.34,0,0,1-.006.3c-.036.055.046-.079.113-.086a.215.215,0,0,0,.189-.138A.332.332,0,0,0,844.28,251.2Z" transform="translate(-843.584 -250.735)"/><path class="s" d="M844.171,251.145a.258.258,0,0,0-.133.087c-.032.058-.106,0-.161-.017s.063.05.13-.031S844.136,251.106,844.171,251.145Z" transform="translate(-843.52 -250.717)"/></g><g transform="translate(3.788 14.11)"><path class="l" d="M844.609,253.21" transform="translate(-844.226 -252.463)"/><path class="t" d="M844.93,252.875a.51.51,0,0,0-.026-.392c-.1-.2-.241-.239-.342-.214-.049.012-.119.082-.19.3-.018.058-.415.04.029.319a.132.132,0,0,1,.041.178l-.062.047.24-.1s.059.177.209.181C844.938,253.2,845.039,253,844.93,252.875Z" transform="translate(-844.138 -252.262)"/><path class="n" d="M844.146,253.034c.048.135.167.21.267.168a.252.252,0,0,0,.092-.321c-.048-.134-.168-.21-.266-.167A.25.25,0,0,0,844.146,253.034Z" transform="translate(-844.124 -252.355)"/><path class="o" d="M844.49,252.636l-.24.064a.244.244,0,0,0-.01.329c.129.212.221.187.349.062S844.736,252.672,844.49,252.636Z" transform="translate(-844.137 -252.341)"/><path class="p" d="M844.145,253.035c.048.135.2.223.267.159a.272.272,0,0,0,.062-.279c-.035-.14-.164-.233-.237-.2A.246.246,0,0,0,844.145,253.035Z" transform="translate(-844.124 -252.357)"/><path class="q" d="M844.53,252.6l-.2.083s.154-.029.235.23c0,0,.031.166-.073.234l.231-.136a.266.266,0,0,0,0-.274s.014.184-.031.188C844.693,252.928,844.726,252.673,844.53,252.6Z" transform="translate(-844.167 -252.334)"/><path class="u" d="M844.583,252.279a.456.456,0,0,0-.1.123c-.048.09-.042.163-.078.181-.056.026.038-.028.127.121s.129.181.152.137,0-.424.224-.358C844.985,252.5,844.776,252.206,844.583,252.279Z" transform="translate(-844.18 -252.264)"/><path class="s" d="M844.714,252.673a.383.383,0,0,1,.092.2c0,.084-.009.133-.042.1s0-.1-.041-.087.013.069-.02.061-.058-.056-.058-.056a.235.235,0,0,1,0,.209c-.025.039.032-.055.078-.059a.149.149,0,0,0,.13-.1A.229.229,0,0,0,844.714,252.673Z" transform="translate(-844.232 -252.349)"/><path class="s" d="M844.639,252.634a.182.182,0,0,0-.093.06c-.022.04-.074,0-.111-.011s.043.035.09-.022S844.614,252.607,844.639,252.634Z" transform="translate(-844.187 -252.337)"/></g></g><path class="v" d="M857.113,250.694l-10.006,4.669-.461-1.438s4.393-1.639,4.876-2.813,4.217-4.826,4.217-4.826" transform="translate(-817.398 -225.329)"/><g transform="translate(33.071)"><path class="w" d="M857.772,237.879c.022-.035-1.891-8.369-1.891-8.369l19.39-9.635,4.944,6.613Z" transform="translate(-852.42 -219.748)"/><path class="x" d="M852.06,233.425l-.068.807.594.367.513-.66-.192-.314Z" transform="translate(-851.598 -222.611)"/><g transform="translate(0.103)"><path d="M851.623,232.7c.038-.016.589-.288.589-.288l-.227-.408,11.072-5.347,5,6.916-11.128,5.414a5.044,5.044,0,0,1-.468-.409,6.787,6.787,0,0,0-.684.341Z" transform="translate(-851.623 -221.181)"/><path d="M866.542,225.154c-.017.013,4.966,6.864,4.966,6.864l11.068-5.361s-.244-.341-.212-.369.531-.3.531-.3-4.428-6.15-4.417-6.177-.554.281-.591.267a3.409,3.409,0,0,1-.267-.362Z" transform="translate(-854.776 -219.714)"/><path class="y" d="M858.232,239.776l22.424-11.061.148-.29L858.331,239.36Z" transform="translate(-853.019 -221.555)"/></g><path class="z" d="M858.213,242.15l-.405-.52-.132.382.439.554Z" transform="translate(-852.799 -224.345)"/><path class="aa" d="M857.651,241.629l-.714.017-.041.436.614-.07Z" transform="translate(-852.635 -224.345)"/><path class="ab" d="M855.754,240.537l.032-.435-4.191-5.783-.1.153Z" transform="translate(-851.493 -222.8)"/></g><g transform="translate(0 16.55)"><path class="ac" d="M815.841,258.863c.022-.036-1.89-8.369-1.89-8.369l19.39-9.635,4.944,6.614Z" transform="translate(-810.489 -240.732)"/><path class="ad" d="M810.129,254.41l-.068.807.594.367.513-.66-.192-.314Z" transform="translate(-809.667 -243.595)"/><g transform="translate(0.103)"><path d="M809.692,253.683c.038-.016.589-.288.589-.288l-.227-.408,11.072-5.347,5,6.916L815,259.97a5.185,5.185,0,0,1-.468-.409,6.828,6.828,0,0,0-.684.341Z" transform="translate(-809.692 -242.165)"/><path d="M824.611,246.137c-.018.014,4.966,6.865,4.966,6.865l11.067-5.361s-.245-.341-.211-.369.532-.3.532-.3-4.428-6.15-4.417-6.177-.555.281-.591.267a3.425,3.425,0,0,1-.268-.362Z" transform="translate(-812.845 -240.698)"/><path class="ae" d="M816.3,260.76,838.725,249.7l.148-.29L816.4,260.344Z" transform="translate(-811.089 -242.539)"/></g><path class="af" d="M816.281,263.134l-.405-.521-.132.382.44.554Z" transform="translate(-810.868 -245.329)"/><path class="ag" d="M815.72,262.613l-.714.017-.04.436.614-.07Z" transform="translate(-810.704 -245.329)"/><path class="ah" d="M813.823,261.521l.032-.435-4.191-5.783-.1.153Z" transform="translate(-809.562 -243.784)"/></g><g transform="translate(24.654 10.379)"><g transform="translate(0 1.161)"><path d="M850.63,235.837a6.034,6.034,0,0,0-8.046.1c-2.284,2.221-2.22,5.152-.54,6.842s7,1.7,8.688-.2S853.014,237.816,850.63,235.837Z" transform="translate(-840.822 -234.347)"/><path class="l" d="M846.32,242.024l-.759.917c-.069.045-.151-.154-.151-.154a1.916,1.916,0,0,1-2.066-1.122c-.206-.629.607-1.177.607-1.177l.949-1.878c-.222-.267-.512-1.84,1.33-1.962,2.1-.14,1.757,1.533,1.757,1.533l3.124,2.2Zm-2.17-1.6a1.45,1.45,0,0,1,1.661.5l.383-1.551a1.754,1.754,0,0,1-1.172-.5Zm2.4-.923-.42,1.848s.072.219.261.181,4.337-1.236,4.337-1.236l-3-1.556A2.221,2.221,0,0,1,846.554,239.505Z" transform="translate(-841.348 -234.831)"/><path d="M844.928,239.372a2.349,2.349,0,0,0,1.272.548l-.738,3.745a1.724,1.724,0,0,1-2.123-.517c-.979-1.141.518-2.117.518-2.117Z" transform="translate(-841.284 -235.409)"/><path d="M845.908,243.324l.3.1.843-3.537s.725.069,1.387-.9l3.121,1.932.3.042s-4.816,3.267-5.526,3.1S845.908,243.324,845.908,243.324Z" transform="translate(-841.885 -235.327)"/><path class="l" d="M850.073,244.933s-1.905,1.14-2.9.222,1.556-.86.546-2.023-2.36.117-2.575.81-2.868,2.007-4.133-1.6c-.049-.031.633,2.76,2.7,3.35S848.365,246.623,850.073,244.933Z" transform="translate(-840.861 -236.035)"/><path d="M846.339,236.618s1.712-.312,1.746,1.109c.031,1.266-2.633,1.652-2.054.374.453-1-.837-.27-.508.318S843.765,237.554,846.339,236.618Z" transform="translate(-841.712 -234.821)"/><path class="ai" d="M841.008,242.337a4.04,4.04,0,0,0,2.117,2.824c1.426.684,2.88-1.247,3.189.078.158.676,3.244.9,5.373-2.186a5.524,5.524,0,0,1-5.664,3.3C841.655,246.107,841.074,242.649,841.008,242.337Z" transform="translate(-840.861 -236.035)"/><path class="q" d="M845.411,243.91s-1.37.177-1.7-.7-.431-1.456-1.412-1.263-.715,3.84,3.419,4.277,4-2.737,3.046-3.473a2.119,2.119,0,0,0-2.542.027C845.861,243.136,846.121,243.548,845.411,243.91Z" transform="translate(-841.033 -235.946)"/><path class="aj" d="M842.178,242.109s-.733.6-.087,2.089,3.927,2.644,5.709,1.924a2.016,2.016,0,0,0,1.428-2.495c-.11-.338-.838-.413-.855.573a1.831,1.831,0,0,1-2.6,1.279c-1-.635-3.452-.2-3.275-1.968C842.633,242.2,842.487,242.084,842.178,242.109Z" transform="translate(-841.034 -235.986)"/><path class="q" d="M848.353,238.152s.325-1.166-1.206-1.582c-1.7-.463-2.453,1.51-1.953,1.792,0,0,.007-1.329.979-.992a1.133,1.133,0,0,0,1.129-.048C847.664,237.181,848.219,237.44,848.353,238.152Z" transform="translate(-841.713 -234.802)"/><path class="aj" d="M848.128,237.408a2.286,2.286,0,0,0-1.348-.345c-1.432.14-1.358.042-1.716.612,0,0-.077-.631.864-1.032C846.973,236.2,848.123,236.908,848.128,237.408Z" transform="translate(-841.718 -234.802)"/><path class="aj" d="M847.1,236.76s.09.275-.334.226-.728-.145-.935-.052S846.335,236.33,847.1,236.76Z" transform="translate(-841.872 -234.827)"/><path class="q" d="M845.273,238.83l-.194-.457s.256.366.284.086.224-.769.577-.782.842.334.663.673-.176.606.419.553,1.338-.434,1.279-1.182a1.493,1.493,0,0,1-.7,1.493A1.9,1.9,0,0,1,845.273,238.83Z" transform="translate(-841.721 -235.05)"/><path class="ak" d="M847.648,234.5a6.223,6.223,0,0,0-5.372,1.947,4.523,4.523,0,0,0-.806,5.644,3.1,3.1,0,0,1,.1-3.5c1.259-1.974,1.306-1.2,1.671-2.375S845.937,234.539,847.648,234.5Z" transform="translate(-840.822 -234.366)"/><path class="q" d="M848.314,242.956s-.886.132-.491.647.9.8,1.081.532S849.379,243.161,848.314,242.956Z" transform="translate(-842.28 -236.166)"/><path class="q" d="M852.2,235.749c0,.036,4.347,2.715.317,7.965C852.518,243.714,857.414,239.133,852.2,235.749Z" transform="translate(-843.226 -234.643)"/></g><path d="M850.407,234.812l-.025-1.172s-1.032-.067-.249-.6,1.381.418.554.564l.073,1.3Z" transform="translate(-842.727 -232.874)"/><path class="q" d="M850.211,233.1s.523-.142.736.07-.182.448-.182.448l-.176.015a3.356,3.356,0,0,1,.079.345c.022.144.155.862.155.862l-.062-1.194s-.025-.026.051-.037.308-.106.337-.243S851.149,232.719,850.211,233.1Z" transform="translate(-842.806 -232.893)"/><path class="al" d="M850.08,233.123s.39-.121.461-.006.254.112.374.078.164.241,0,.359a.3.3,0,0,0,.192-.385C851.021,232.867,850.473,232.763,850.08,233.123Z" transform="translate(-842.778 -232.878)"/><path class="n" d="M852.3,235.578c.006.037,4.385,2.746.355,8C852.66,243.575,857.517,238.962,852.3,235.578Z" transform="translate(-843.248 -233.446)"/></g></g></g><g transform="translate(6.13 5.279)"><g transform="translate(0 0.655)"><path class="e" d="M793.579,266.5l-.629.159.155.616.631-.162Z" transform="translate(-792.022 -205.213)"/><path class="e" d="M798.96,261.455l-.639.12.118.629.639-.121Zm-.2-1.078-.64.12.117.626.64-.118Z" transform="translate(-793.114 -203.92)"/><path class="e" d="M798.32,265.3a1.324,1.324,0,0,1-.95.738,1.43,1.43,0,0,1-1.163-.118,1.352,1.352,0,0,1-.562-.853l-.175-.692a1.048,1.048,0,0,0-.433,1.626l-.541.135a1.254,1.254,0,0,1-.218-.458,1.553,1.553,0,0,1,1.154-2.018,1.3,1.3,0,0,0,.779-.64.877.877,0,0,0,.081-.591l-.022-.149h0l-.07-.371c-.039-.211-.126-.331-.263-.371a1.246,1.246,0,0,0-.42.032l-1.342.251-.12-.639,1.558-.293c.692-.129,1.093.127,1.211.759l.126.674h0a1.6,1.6,0,0,1-.2,1.165,1.468,1.468,0,0,1-.657.626l.192.76a.727.727,0,0,0,.953.526.677.677,0,0,0,.454-.336.76.76,0,0,0,.067-.563l-.172-.681.658-.166.114.45A1.816,1.816,0,0,1,798.32,265.3Z" transform="translate(-792.255 -204.021)"/><path class="e" d="M795.946,256.8l-.144-1.03h0l-.05-.592a1.216,1.216,0,0,0,.43-1.073,1.229,1.229,0,0,0-.579-1.013l.042-.572v-.685s-.432-.971-1.135-.994h-2.521v.784H794.3a1.563,1.563,0,0,1,.419-.059c.129.064.195.2.147.411l.261.334v.581l-.366.011a1.374,1.374,0,0,0-.941.43,1.2,1.2,0,0,0-.32.964,1.254,1.254,0,0,0,.442.916,1.339,1.339,0,0,0,.982.293,1.714,1.714,0,0,0,.19-.02l.072.625h0l.1.739-1.957.271.089.646,2.2-.305a.717.717,0,0,1,.928.685l.552-.076C796.986,257.289,796.574,256.814,795.946,256.8Zm-1.081-1.96a.85.85,0,0,1-.519-.115.556.556,0,0,1-.267-.452.6.6,0,0,1,.2-.509.88.88,0,0,1,.517-.194.855.855,0,0,1,.526.114.557.557,0,0,1,.253.447A.692.692,0,0,1,794.865,254.843Z" transform="translate(-791.818 -201.905)"/><path class="e" d="M795.536,249.313l-.012.644-3.751-.072.013-.644Z" transform="translate(-791.773 -201.566)"/><path class="e" d="M793.021,241.274l-.079.634-.639-.08.079-.633Zm1.94-.743a1.266,1.266,0,0,1,1.166,1.455l-.253,2.045c-.146,1.181-.784,1.7-1.849,1.567l-.87-.107.079-.64.87.107c.692.086,1.016-.219,1.112-1l.114-.917h.006a1.678,1.678,0,0,1-.712.076,1.276,1.276,0,0,1-1.169-1.467A1.292,1.292,0,0,1,794.962,240.531Zm-.082.663a.691.691,0,0,0-.841.551c-.046.375.212.652.662.708a.69.69,0,0,0,.835-.552C795.584,241.509,795.295,241.245,794.88,241.193Z" transform="translate(-791.885 -199.723)"/><path class="e" d="M794.271,232.2l-.181.607.618.184.181-.606Zm-.314,1.052-.179.607.615.183.181-.607Zm-.72-.8-.181.611.621.185.184-.611Z" transform="translate(-792.044 -197.966)"/><path class="e" d="M798.5,222.374l-.293.57.572.294.293-.567Zm-.506.982-.293.568.574.294.293-.567Z" transform="translate(-793.025 -195.889)"/><path class="e" d="M803.176,219.006l-1.848,3.042-1.226,2.387-1.711,3.976-1.46,5.058h0l-.155.746a.878.878,0,0,1-.443.644,1.124,1.124,0,0,1-.786.072l-2.631-.547.131-.631,2.376.5a.662.662,0,0,0,.584-.069.922.922,0,0,0,.2-.467l.021-.111h0l.084-.594c.1-.316-.075-.536-.515-.667l-1.235-.369.188-.629,1.213.363a1.438,1.438,0,0,1,.615.292l.033.009.172-.578q.141-.474-.476-.657l-1.275-.379.186-.629,1.214.36c.362.109.578.22.641.331l.181-.606c.094-.319-.065-.535-.472-.657l-1.281-.379.188-.629,1.2.358a1.633,1.633,0,0,1,.648.345l.33-.94,1.154-2.728a1.409,1.409,0,0,0-.972-.069,1.226,1.226,0,0,0-.8.752l-.524,1.235-1.137-1.723.3-.711.716,1.154.111-.262a2.021,2.021,0,0,1,.67-.871,1.993,1.993,0,0,1,1.9-.142l.311-.624.186-.36a.4.4,0,0,0,0-.437.994.994,0,0,0-.36-.263l-1.189-.614.295-.572,1.156.6a1.124,1.124,0,0,1,.536.431l.426-.827.2-.436c.175-.28.07-.54-.32-.782l-1.093-.681.347-.558,1.073.67a1.438,1.438,0,0,1,.517.445l.031.02.319-.513c.174-.282.079-.532-.285-.759l-1.129-.7.347-.557,1.073.67c.321.2.5.364.531.488l.336-.536c.174-.282.078-.532-.281-.757l-1.133-.707.347-.556,1.065.663A1.207,1.207,0,0,1,803.176,219.006Z" transform="translate(-792.015 -194.681)"/><path class="e" d="M805.115,212.235l2.259,1.711a.908.908,0,0,1,.11,1.365l-1.049,1.384-.528-.4.536-.708-2.571-1.029.414-.546,2.567,1.034a.533.533,0,0,0,.137-.392.775.775,0,0,0-.346-.466l-1.912-1.448Z" transform="translate(-794.33 -193.747)"/><path class="e" d="M811.536,206.713l1.224,1.189a.836.836,0,0,1,.038,1.293l-1.469,1.511q-1.286,1.324-2.465.179l-.712-.692.449-.462.712.692a.9.9,0,0,0,.8.317,1.4,1.4,0,0,0,.688-.441l1.109-1.141a1.157,1.157,0,0,0,.346-.514.666.666,0,0,0-.263-.6l-.9-.879Zm-1.866,1.911-.441.454-.462-.45.441-.454Zm.769-.791-.441.454-.463-.449.442-.454Z" transform="translate(-795.234 -192.58)"/><path class="e" d="M815.21,207.349l-.481.429-2.5-2.8.48-.43Z" transform="translate(-796.096 -192.123)"/><path class="e" d="M815.534,204.014l1.356,1.629a1.266,1.266,0,0,1-.172,2.07l-.357-.428a.717.717,0,0,0,.092-1.15l-1.42-1.7Z" transform="translate(-796.688 -192.009)"/><path class="e" d="M821.239,201.572a1.291,1.291,0,0,0-1.837-.4,1.272,1.272,0,0,0-.345,1.842,1.545,1.545,0,0,0,.1.122l.021.022-.65.471h0l-.116.088a.909.909,0,0,1-.458.225c-.148,0-.311-.1-.484-.33l-1.473-1.931-.513.39,1.63,2.138a1.146,1.146,0,0,0,.644.461.878.878,0,0,0,.755-.2l.6-.461h0l.633-.44a1.226,1.226,0,0,0,1.161-.158A1.269,1.269,0,0,0,821.239,201.572Zm-.654,1.327a.7.7,0,0,1-.977-.267.665.665,0,0,1,.107-.966.694.694,0,0,1,.971.277A.653.653,0,0,1,820.585,202.9Z" transform="translate(-796.783 -191.36)"/><path class="e" d="M824.091,196.407l1.4,2.465a.908.908,0,0,1-.438,1.3l-1.51.857-.326-.576.772-.439-1.955-1.962.6-.338,1.95,1.965a.527.527,0,0,0,.28-.306.769.769,0,0,0-.133-.565l-1.184-2.086Zm.941,5.142-.873.5-.133-.233.2-.114a1.1,1.1,0,0,1-.146-.151.465.465,0,0,1,.156-.644.389.389,0,0,1,.45.052l-.133.189a.148.148,0,0,0-.2-.031.214.214,0,0,0-.06.294.236.236,0,0,0,.2.14l.409-.233Z" transform="translate(-798.167 -190.402)"/><path class="e" d="M827.758,198.974l-.576.29-1.685-3.351.576-.289Z" transform="translate(-798.9 -190.236)"/><path class="e" d="M832.614,195.547l-1.421.575c-.56.226-.744.577-.554,1.045.17.42.6.542,1.112.333l.964-.39.242.6-.92.373a1.415,1.415,0,0,1-1.979-.7,1.3,1.3,0,0,1,.5-1.674,1.476,1.476,0,0,1-.471-.592,1.175,1.175,0,0,1,.647-1.59.991.991,0,0,1,1.114.213l-.365.4a.494.494,0,0,0-.558-.112.607.607,0,0,0-.287.856.8.8,0,0,0,.64.511l1.1-.444Z" transform="translate(-799.838 -189.775)"/><path class="e" d="M836.684,195.646c.214.657-.076,1.118-.877,1.378l-.16-.491c.383-.137.492-.46.363-.894a.644.644,0,0,1-.494.472,1.323,1.323,0,1,1,.79-1.63Zm-1.01-.948c-.14-.431-.465-.643-.819-.528a.646.646,0,0,0-.317.866.663.663,0,0,0,.8.517A.645.645,0,0,0,835.674,194.7Z" transform="translate(-800.662 -189.794)"/><path class="e" d="M843.086,189.79l-.624.1.1.637.625-.1Zm.4-1-.631.1.1.641.631-.1Zm.683.819-.626.1.1.635.626-.1Z" transform="translate(-802.484 -188.793)"/><path class="e" d="M848.862,192.579a1.291,1.291,0,0,0-1.388-1.27,1.267,1.267,0,0,0-1.222,1.416c0,.052.013.1.022.157l.007.028-.574.037h0l-.991.1a1.643,1.643,0,0,0,.026-.733l-.205-1.237-.646.107.218,1.318c.068.42-.057.657-.384.711l-.624.1a1.19,1.19,0,0,0,.015-.72l-.2-1.25-.648.107.216,1.313c.073.424-.054.661-.382.716l-.6.1,0-.035a1.431,1.431,0,0,0-.006-.681l-.207-1.248-.648.107.212,1.272c.074.451-.051.7-.375.755l-.572.177h0l-.692.179-.493-1.909-.631.162.557,2.147a.718.718,0,0,1-.577,1l.14.539c.766-.2,1.192-.661,1.131-1.287l1.006-.259h0l5.184-.873h0l1.044-.068a1.227,1.227,0,0,0,1.082.448A1.271,1.271,0,0,0,848.862,192.579Zm-1.233.82a.7.7,0,0,1-.711-.722.667.667,0,0,1,.578-.783.7.7,0,0,1,.7.729A.654.654,0,0,1,847.63,193.4Z" transform="translate(-801.555 -189.275)"/></g><g transform="translate(60.853 3.178)"><path class="e" d="M871.635,196.4l-2.7-.939,1.2-3.471,2.689.933-.256.735-1.834-.636-.226.652,1.684.584-.241.694-1.684-.584-.226.652,1.85.642Z" transform="translate(-868.93 -191.993)"/><path class="e" d="M876.9,198.677l-.8-.364.759-1.666-1.633,1.269-.508-.233-.115-2.077-.764,1.677-.8-.364,1.523-3.344.808.369.18,2.582,2.066-1.559.8.366Z" transform="translate(-869.799 -192.328)"/><path class="e" d="M878.644,199.623l1.762-3.224.794.434-1.762,3.225Z" transform="translate(-870.983 -192.924)"/><path class="e" d="M882.328,201.8l-.269-1.657-.223-.14-.67,1.069-.766-.481,1.951-3.113,1.575.987a1.2,1.2,0,0,1,.482,1.719,1.152,1.152,0,0,1-1.438.478l.283,1.717Zm.635-1.984a.449.449,0,1,0,.468-.748l-.725-.454-.468.748Z" transform="translate(-871.354 -193.153)"/><path class="e" d="M886.537,205.041l.2-.689-1.234-.931-.609.379-.775-.584,3.439-2.009.741.558-.988,3.858Zm.776-2.74-1.1.682.748.565Z" transform="translate(-872.139 -193.94)"/><path class="e" d="M891.611,205.083l-1.9,2.168-.675-.594,1.9-2.167-.894-.786.521-.593,2.464,2.164-.521.593Z" transform="translate(-873.178 -194.342)"/><path class="e" d="M893.42,211.112l-2-2.05,2.631-2.566,1.987,2.038-.558.544-1.355-1.391-.495.483,1.244,1.276-.526.513-1.244-1.276-.495.482,1.367,1.4Z" transform="translate(-873.683 -195.058)"/><path class="e" d="M898.522,212.932l-.708-.567a.626.626,0,0,0-.014-.823c-.193-.232-.441-.274-.6-.141-.114.1-.156.216-.047.424l.357.695a1.084,1.084,0,0,1-.177,1.46c-.6.5-1.36.226-1.883-.4a1.45,1.45,0,0,1-.173-1.947l.736.6a.672.672,0,0,0,.046.9c.218.261.465.319.638.175.126-.106.158-.231.031-.469l-.365-.7a1.067,1.067,0,0,1,.186-1.439c.548-.456,1.268-.285,1.819.377A1.4,1.4,0,0,1,898.522,212.932Z" transform="translate(-874.433 -195.894)"/><path class="e" d="M900.61,220.753l-.473-.739,1.543-.987-2.06.179-.3-.471,1.032-1.807-1.552.994-.473-.739,3.095-1.981.48.748-1.252,2.267,2.582-.188.476.744Z" transform="translate(-875.141 -196.897)"/><path class="e" d="M902.787,225.218l.48-.533-.7-1.379-.713.073-.439-.866,3.972-.293.419.827-2.581,3.032Zm1.9-2.121-1.287.13.424.836Z" transform="translate(-875.794 -198.38)"/><path class="e" d="M904.706,229.236l.756-1.5-.1-.244-1.17.471-.338-.839,3.409-1.373.7,1.724a1.2,1.2,0,0,1-.62,1.675,1.152,1.152,0,0,1-1.444-.459l-.781,1.556ZM906.385,228a.449.449,0,1,0,.82-.33l-.32-.794-.819.33Z" transform="translate(-876.31 -199.127)"/><path class="e" d="M909.1,233.653l-.438-.793a.628.628,0,0,0,.3-.767c-.09-.288-.3-.422-.5-.36-.141.044-.226.14-.2.374l.065.778a1.084,1.084,0,0,1-.72,1.282c-.749.233-1.344-.311-1.587-1.091a1.449,1.449,0,0,1,.584-1.865l.451.836a.67.67,0,0,0-.3.853c.1.325.308.473.523.405.157-.049.233-.153.207-.421l-.072-.782a1.068,1.068,0,0,1,.721-1.26c.681-.212,1.281.221,1.538,1.043A1.4,1.4,0,0,1,909.1,233.653Z" transform="translate(-876.743 -200.191)"/><path class="e" d="M908.074,241.778l-.157-.864,1.8-.327-1.974-.617-.1-.551,1.641-1.279-1.813.329-.156-.863,3.615-.656.158.875-2.019,1.62,2.459.808.158.868Z" transform="translate(-877.042 -201.493)"/><path class="e" d="M908.321,243.805l3.653-.394.1.9-3.653.394Z" transform="translate(-877.254 -202.858)"/><path class="e" d="M911.382,248.671l-.226-.879a.626.626,0,0,0,.483-.666c-.015-.3-.188-.484-.4-.474-.148.007-.255.079-.292.311l-.132.77c-.111.643-.437,1.032-1.018,1.062-.783.039-1.223-.636-1.264-1.451a1.45,1.45,0,0,1,1.031-1.661l.228.922a.672.672,0,0,0-.507.75c.018.34.181.535.406.524.164-.009.265-.091.306-.357l.125-.774c.095-.532.346-1.006,1.014-1.04.712-.036,1.185.533,1.229,1.393A1.406,1.406,0,0,1,911.382,248.671Z" transform="translate(-877.299 -203.338)"/><path class="e" d="M911.319,253.3l-.157-.893a.626.626,0,0,0,.532-.627c.009-.3-.15-.5-.359-.5-.148,0-.26.059-.315.288l-.19.757c-.16.633-.515,1-1.1.98-.784-.021-1.171-.729-1.149-1.546a1.451,1.451,0,0,1,1.156-1.576l.156.937a.672.672,0,0,0-.562.709c-.009.34.139.547.364.553.164,0,.271-.069.333-.331l.184-.763c.135-.523.422-.976,1.091-.958.712.019,1.14.623,1.117,1.484A1.4,1.4,0,0,1,911.319,253.3Z" transform="translate(-877.309 -204.289)"/><path class="e" d="M908.538,254.818l3.661.309-.077.9-3.661-.309Z" transform="translate(-877.283 -205.269)"/><path class="e" d="M909.563,260.858a1.959,1.959,0,1,1,2.2-1.648A1.918,1.918,0,0,1,909.563,260.858Zm.136-.9a1.053,1.053,0,1,0-.917-1.2A1.051,1.051,0,0,0,909.7,259.962Z" transform="translate(-877.173 -205.722)"/><path class="e" d="M906.483,265.592l.18-.723,2.515-1.288-2.064-.516.219-.878,3.564.89-.182.729-2.578,1.272,2.128.532-.218.872Z" transform="translate(-876.866 -206.826)"/></g><path class="e" d="M859.148,195.588c.3-3.436-.04-3.846-3.475-4.15,3.435.3,3.846-.04,4.149-3.475-.3,3.435.04,3.846,3.475,4.149C859.863,191.809,859.452,192.153,859.148,195.588Z" transform="translate(-805.276 -187.963)"/></g><g transform="translate(1.339 71.558)"><g transform="translate(0 0.028)"><g class="am"><g transform="translate(3.438 -67.333)"><path class="e" d="M839.662,283.875a47.607,47.607,0,1,1,47.607-47.607A47.661,47.661,0,0,1,839.662,283.875Zm0-93.228a45.622,45.622,0,1,0,45.621,45.622A45.673,45.673,0,0,0,839.662,190.647Z" transform="translate(-790.478 -187.085)"/><path class="an" d="M840.232,282.31a45.691,45.691,0,1,1,45.69-45.69A45.773,45.773,0,0,1,840.232,282.31Zm0-89.632a43.941,43.941,0,1,0,43.941,43.942A44.005,44.005,0,0,0,840.232,192.678Z" transform="translate(-790.994 -187.564)"/><path class="ao" d="M839.24,285.03a49.183,49.183,0,1,1,49.182-49.183A49.239,49.239,0,0,1,839.24,285.03Zm0-96.624a47.44,47.44,0,1,0,47.439,47.44A47.494,47.494,0,0,0,839.24,188.406Z" transform="translate(-790.056 -186.663)"/></g></g></g><path class="ap" d="M908.094,272.032l-5.767-.014s-2.143,4.313-3.316,6.021l6.212,0A45.252,45.252,0,0,0,908.094,272.032Z" transform="translate(-809.642 -272.005)"/><path class="ap" d="M794.457,272.029l5.732-.028a67.3,67.3,0,0,0,3.335,6.034l-6.187.006A44.458,44.458,0,0,1,794.457,272.029Z" transform="translate(-787.548 -272.001)"/></g><g transform="translate(17.269 17.268)"><g class="aq" transform="translate(0 0)"><ellipse class="ar" cx="39.563" cy="34.471" rx="39.563" ry="34.471" transform="translate(0 43.872)"/></g></g><g transform="translate(35.508 70.815)"><path class="e" d="M830.192,278.833a1.734,1.734,0,0,1-.72-.636,2.6,2.6,0,0,1-.355-.98,7.766,7.766,0,0,1-.1-1.265h.937a5.879,5.879,0,0,0,.084,1.09,1.864,1.864,0,0,0,.26.692.943.943,0,0,0,.45.365,2.1,2.1,0,0,0,1.32,0,.944.944,0,0,0,.454-.365,1.874,1.874,0,0,0,.259-.692,5.851,5.851,0,0,0,.084-1.09v-3.863h1.039v3.694a.66.66,0,0,0,.069.319.58.58,0,0,0,.183.205.814.814,0,0,0,.252.113,1.06,1.06,0,0,0,.27.037h.154a.372.372,0,0,1,.106.014c.032.01.048.039.048.088v.68c0,.054-.051.08-.154.08h-.154a.828.828,0,0,1-.234-.036.853.853,0,0,1-.234-.11.978.978,0,0,1-.194-.172.468.468,0,0,1-.106-.223h-.029a3.767,3.767,0,0,1-.227.991,1.969,1.969,0,0,1-.464.713,1.916,1.916,0,0,1-.743.432,3.432,3.432,0,0,1-1.061.146A2.725,2.725,0,0,1,830.192,278.833Z" transform="translate(-829.022 -271.276)"/><path class="e" d="M836.194,277.677V277c0-.049.016-.078.047-.088a.364.364,0,0,1,.106-.014h.739v-.029a1.334,1.334,0,0,1-.289-.4,1.121,1.121,0,0,1-.121-.5,1.94,1.94,0,0,1,.143-.772,1.579,1.579,0,0,1,.4-.563,1.708,1.708,0,0,1,.6-.348,2.359,2.359,0,0,1,.757-.117,2.53,2.53,0,0,1,.761.11,1.681,1.681,0,0,1,.611.337,1.593,1.593,0,0,1,.409.563,2.147,2.147,0,0,1,0,1.581,1.565,1.565,0,0,1-.409.559,1.7,1.7,0,0,1-.611.333,2.532,2.532,0,0,1-.761.11h-2.231C836.244,277.758,836.194,277.731,836.194,277.677Zm1.748-1.01a.76.76,0,0,0,.636.271.833.833,0,0,0,.37-.077.769.769,0,0,0,.263-.208.922.922,0,0,0,.161-.308,1.273,1.273,0,0,0,.055-.38,1.311,1.311,0,0,0-.055-.384.942.942,0,0,0-.161-.315.744.744,0,0,0-.263-.212.922.922,0,0,0-.739,0,.743.743,0,0,0-.263.212.945.945,0,0,0-.161.315,1.319,1.319,0,0,0-.055.384A1.106,1.106,0,0,0,837.942,276.668Z" transform="translate(-830.538 -271.715)"/><path class="e" d="M843.028,276.238v-3.021h1.039v3.021h1.375V271.87h1.039V277.1h-4.258v-.863Zm.036-4.339v-.022a.57.57,0,0,1-.073-.132.406.406,0,0,1-.029-.154.481.481,0,0,1,.172-.4.7.7,0,0,1,.45-.139.831.831,0,0,1,.215.029.592.592,0,0,1,.191.092.51.51,0,0,1,.139.161.544.544,0,0,1,.062.238h-.4a.2.2,0,0,0-.212-.205.178.178,0,0,0-.139.066.274.274,0,0,0-.059.19c0,.166.069.256.205.271h.615v.337H842.83V271.9Z" transform="translate(-831.812 -271.058)"/><path class="e" d="M848.736,272.088h1.039v5.231h-1.039Z" transform="translate(-833.188 -271.276)"/><path class="e" d="M854.816,277.768a3.8,3.8,0,0,1-.069.757,1.7,1.7,0,0,1-.227.585,1.07,1.07,0,0,1-.421.381,1.435,1.435,0,0,1-.658.135,2,2,0,0,1-.341-.029,1.431,1.431,0,0,1-.311-.088v-.754a.493.493,0,0,0,.19.077,1.319,1.319,0,0,0,.227.018.444.444,0,0,0,.439-.267,2.03,2.03,0,0,0,.125-.815v-3h1.046Z" transform="translate(-834.045 -271.842)"/><path class="e" d="M858.144,276.47c.032.01.048.039.048.088v.68c0,.054-.052.08-.155.08h-1.565v-5.231h1.038v4.368h.526A.372.372,0,0,1,858.144,276.47Z" transform="translate(-834.823 -271.276)"/><path class="e" d="M858.263,277.8v-.68c0-.049.016-.078.047-.088a.365.365,0,0,1,.106-.014h.98a.574.574,0,0,0,.161-.026.441.441,0,0,0,.165-.092.522.522,0,0,0,.128-.175.664.664,0,0,0,.051-.278v-1.682h1.039v1.536a.88.88,0,0,0,.054.326.671.671,0,0,0,.143.222.539.539,0,0,0,.2.129.659.659,0,0,0,.222.04h.33a.376.376,0,0,1,.107.014c.031.01.047.039.047.088v.68c0,.054-.052.08-.154.08h-.33a.924.924,0,0,1-.278-.043,1.407,1.407,0,0,1-.494-.275,1.232,1.232,0,0,1-.18-.187,1.138,1.138,0,0,1-.3.249,1.981,1.981,0,0,1-.329.153,1.639,1.639,0,0,1-.318.081,2.017,2.017,0,0,1-.271.021h-.98C858.313,277.885,858.263,277.858,858.263,277.8Zm2.67.776v.856h-1.038v-.856Z" transform="translate(-835.201 -271.842)"/><path class="e" d="M867.136,277.772a.668.668,0,0,1-.356-.348h-.028a1.006,1.006,0,0,1-.439.366,1.72,1.72,0,0,1-.681.117,1.5,1.5,0,0,1-.669-.135.664.664,0,0,1-.355-.348h-.029a.315.315,0,0,1-.07.121.955.955,0,0,1-.161.154,1.032,1.032,0,0,1-.226.132.678.678,0,0,1-.267.054h-1.032q-.154,0-.154-.08v-.68c0-.049.016-.078.048-.088a.365.365,0,0,1,.106-.014h.483a.392.392,0,0,0,.3-.118.573.573,0,0,0,.11-.4v-1.448h1.039v1.485a.452.452,0,0,0,.165.4.736.736,0,0,0,.435.117.59.59,0,0,0,.4-.117.509.509,0,0,0,.132-.4v-1.625h1.039v1.625a.452.452,0,0,0,.165.4.736.736,0,0,0,.435.117.591.591,0,0,0,.4-.117.508.508,0,0,0,.132-.4v-1.778H869.1v1.741a.573.573,0,0,0,.109.4.392.392,0,0,0,.3.118h.535a.376.376,0,0,1,.106.014c.032.01.047.039.047.088v.68c0,.054-.052.08-.154.08h-.337a.8.8,0,0,1-.215-.032,1.082,1.082,0,0,1-.22-.091.865.865,0,0,1-.19-.143.579.579,0,0,1-.129-.194h-.029a1,1,0,0,1-.439.366,1.719,1.719,0,0,1-.681.117A1.5,1.5,0,0,1,867.136,277.772Z" transform="translate(-836.132 -271.842)"/><path class="e" d="M871.816,277.677V277c0-.049.016-.078.048-.088a.364.364,0,0,1,.106-.014h.739v-.029a1.323,1.323,0,0,1-.289-.4,1.12,1.12,0,0,1-.121-.5,1.941,1.941,0,0,1,.143-.772,1.581,1.581,0,0,1,.4-.563,1.7,1.7,0,0,1,.6-.348,2.35,2.35,0,0,1,.756-.117,2.533,2.533,0,0,1,.761.11,1.681,1.681,0,0,1,.611.337,1.588,1.588,0,0,1,.409.563,2.161,2.161,0,0,1,0,1.581,1.56,1.56,0,0,1-.409.559,1.7,1.7,0,0,1-.611.333,2.536,2.536,0,0,1-.761.11H871.97C871.868,277.758,871.816,277.731,871.816,277.677Zm1.748-1.01a.76.76,0,0,0,.636.271.834.834,0,0,0,.37-.077.768.768,0,0,0,.263-.208.924.924,0,0,0,.161-.308,1.273,1.273,0,0,0,.055-.38,1.311,1.311,0,0,0-.055-.384.943.943,0,0,0-.161-.315.743.743,0,0,0-.263-.212.922.922,0,0,0-.739,0,.745.745,0,0,0-.263.212.974.974,0,0,0-.161.315,1.319,1.319,0,0,0-.055.384A1.106,1.106,0,0,0,873.565,276.668Z" transform="translate(-838.065 -271.715)"/></g><g transform="translate(46.589 80.023)"><path class="e" d="M843.072,282.875h.963v1.63h1.871v-1.63h.963v4.371h-.963v-1.889h-1.871v1.889h-.963Z" transform="translate(-843.072 -282.764)"/><path class="e" d="M848.4,285.031a2.481,2.481,0,0,1,.176-.95,2.084,2.084,0,0,1,.491-.726,2.168,2.168,0,0,1,.747-.46,2.853,2.853,0,0,1,1.889,0,2.167,2.167,0,0,1,.747.46,2.086,2.086,0,0,1,.491.726,2.651,2.651,0,0,1,0,1.9,2.082,2.082,0,0,1-.491.725,2.158,2.158,0,0,1-.747.461,2.867,2.867,0,0,1-1.889,0,2.158,2.158,0,0,1-.747-.461,2.079,2.079,0,0,1-.491-.725A2.481,2.481,0,0,1,848.4,285.031Zm1,0a1.6,1.6,0,0,0,.1.565,1.291,1.291,0,0,0,.274.445,1.256,1.256,0,0,0,.429.293,1.54,1.54,0,0,0,1.118,0,1.265,1.265,0,0,0,.429-.293,1.3,1.3,0,0,0,.275-.445,1.711,1.711,0,0,0,0-1.126,1.3,1.3,0,0,0-.275-.448,1.265,1.265,0,0,0-.429-.293,1.542,1.542,0,0,0-1.118,0,1.256,1.256,0,0,0-.429.293,1.3,1.3,0,0,0-.274.448A1.607,1.607,0,0,0,849.4,285.031Z" transform="translate(-844.198 -282.734)"/><path class="e" d="M854.9,282.875h1.624a3.222,3.222,0,0,1,.642.061,1.48,1.48,0,0,1,.527.214,1.076,1.076,0,0,1,.358.407,1.4,1.4,0,0,1,.133.645,1.5,1.5,0,0,1-.123.642,1.061,1.061,0,0,1-.34.414,1.38,1.38,0,0,1-.512.219,3.05,3.05,0,0,1-.642.065h-.7v1.7H854.9Zm.963,1.853h.642a1.221,1.221,0,0,0,.25-.025.69.69,0,0,0,.217-.083.456.456,0,0,0,.154-.161.5.5,0,0,0,.058-.256.432.432,0,0,0-.076-.268.52.52,0,0,0-.2-.158.846.846,0,0,0-.269-.071,2.751,2.751,0,0,0-.284-.015h-.494Z" transform="translate(-845.571 -282.764)"/><path class="e" d="M859.564,282.875h2.969v.889h-2.006v.815h1.894v.889h-1.894v.889h2.117v.889h-3.08Z" transform="translate(-846.557 -282.764)"/></g><path class="d" d="M842.324,276.644a37.05,37.05,0,1,1,37.05-37.05A37.092,37.092,0,0,1,842.324,276.644Zm0-73.643a36.593,36.593,0,1,0,36.593,36.593A36.634,36.634,0,0,0,842.324,203Z" transform="translate(-788.495 -185.766)"/></g></g></svg>