<svg xmlns="http://www.w3.org/2000/svg" width="144.755" height="66.975" viewBox="0 0 144.755 66.975"><defs><style>.a{fill:#fff;}.b{fill:#00abed;fill-rule:evenodd;}</style></defs><g transform="translate(0)"><g transform="translate(0 28.241)"><g transform="translate(0 0)"><g transform="translate(0 0.246)"><rect class="a" width="1.139" height="1.201" transform="translate(16.029)"/><rect class="a" width="1.139" height="1.186" transform="translate(16.968 1.663)"/><path class="a" d="M-3461.757-610.861h-1.062c.031,2.248.046,3.511.046,3.8a1.014,1.014,0,0,1-1.094,1.047,1.978,1.978,0,0,1-1.325-.416,1.645,1.645,0,0,1-.554-1.293c-.015-1.216-.015-2.11-.015-2.695h-1.062c.031,1.91.046,3.034.046,3.357a.97.97,0,0,1-1.047,1.047,1.584,1.584,0,0,1-1.818-1.709v-2.695h-1.062c.016.708.016,1.309.016,1.786v2.4h-6.637a6.666,6.666,0,0,0-1.139-3.5,2.481,2.481,0,0,0-2.017-1.139v.955c.508,0,.969.339,1.4,1.032a5.05,5.05,0,0,1,.754,2.648h-4.2l-.324.985h13.2v-.693a1.76,1.76,0,0,0,.662.647,2.669,2.669,0,0,0,1.216.231,1.8,1.8,0,0,0,1.926-1.216,2.256,2.256,0,0,0,.846.985,2.483,2.483,0,0,0,1.231.262,1.952,1.952,0,0,0,2.048-2.033C-3461.727-607.165-3461.742-608.428-3461.757-610.861Z" transform="translate(3482.852 614.957)"/><rect class="a" width="1.155" height="1.186" transform="translate(15.074 1.663)"/></g><path class="a" d="M-3203.156-653.022h-1.063l-.077-9.963h1.063Z" transform="translate(3227.5 662.985)"/><path class="a" d="M-3189.293-606.5a4.941,4.941,0,0,1-1.109,3.31,4,4,0,0,1-2.9,1.463c-.108-.185-.261-.508-.461-.955a3.135,3.135,0,0,0,2.432-1.047,3.742,3.742,0,0,0,.955-2.6l-.016-4.342h1.063Z" transform="translate(3217.839 615.032)"/></g><g transform="translate(32.921 3.172)"><rect class="a" width="1.139" height="1.185" transform="translate(3.541)"/><rect class="a" width="1.139" height="1.186" transform="translate(12.442 7.868)"/><path class="a" d="M-3073.206-610.861h-1.062c.028,2.334.044,3.521.046,3.592a.97.97,0,0,1-1.048,1.043h-2.832a1.139,1.139,0,0,1-.847-.431,2.023,2.023,0,0,1-.478-1.309l-.015-1.432h-1.047l.046,3.141a3.221,3.221,0,0,1-.894,2.325,2.825,2.825,0,0,1-2.155.97,2.827,2.827,0,0,1-2.156-.97,3.21,3.21,0,0,1-.893-2.294c0-.092-.016-.585-.031-1.463-.016-.909-.016-1.478-.016-1.709h-1.062c0,.215.015.785.046,1.694.015.831.031,1.324.031,1.463a4.328,4.328,0,0,0,1.2,3.08,3.823,3.823,0,0,0,2.879,1.278,3.755,3.755,0,0,0,2.864-1.262,4.325,4.325,0,0,0,1.217-3.034,1.573,1.573,0,0,0,1.417.939h2.74a1.872,1.872,0,0,0,2.093-2C-3073.16-607.227-3073.175-608.428-3073.206-610.861Z" transform="translate(3087.648 612.031)"/></g><path class="a" d="M-2818.139-611.969a2.454,2.454,0,0,0-1.986-.924c-1.6,0-2.572,1.109-2.572,2.895a3.033,3.033,0,0,0,.631,1.909h-3.387a6.425,6.425,0,0,0-1.047-3.3,3.511,3.511,0,0,0-3.064-1.494,6.11,6.11,0,0,0-2.509.647l.446.908a4.372,4.372,0,0,1,2.125-.6,2.5,2.5,0,0,1,2,1.016,4.37,4.37,0,0,1,.939,2.818h-7.838c.016-.169.016-.339.016-.508a3,3,0,0,0-.694-1.986,2.42,2.42,0,0,0-1.971-.893c-1.6,0-2.556,1.093-2.556,2.879,0,.17.016.339.031.508h-5.759a6.662,6.662,0,0,0-1.139-3.5,2.481,2.481,0,0,0-2.018-1.139v.955c.509,0,.97.338,1.4,1.031a5.04,5.04,0,0,1,.754,2.648h-4.2l-.323.985h11.609a2.406,2.406,0,0,0,2.31,1.4,2.269,2.269,0,0,0,2.279-1.4H-2820c1.6,0,2.54-1.093,2.54-2.895A3,3,0,0,0-2818.139-611.969Zm-17.754,4.9a1.283,1.283,0,0,1-1.031.493,1.39,1.39,0,0,1-1.063-.493,2.24,2.24,0,0,1-.492-1.524,2.411,2.411,0,0,1,.431-1.54,1.279,1.279,0,0,1,1.047-.477,1.373,1.373,0,0,1,1.063.477,2.33,2.33,0,0,1,.478,1.54A2.391,2.391,0,0,1-2835.894-607.073Zm16.938-1.417a1.261,1.261,0,0,1-1.032.493,1.389,1.389,0,0,1-1.062-.493,2.238,2.238,0,0,1-.494-1.524,2.335,2.335,0,0,1,.448-1.524,1.283,1.283,0,0,1,1.032-.493,1.388,1.388,0,0,1,1.062.493,2.293,2.293,0,0,1,.493,1.524A2.331,2.331,0,0,1-2818.956-608.489Z" transform="translate(2903.507 617.066)"/><g transform="translate(89.085 1.139)"><rect class="a" width="1.153" height="1.184" transform="translate(3.369 0.784)"/><path class="a" d="M-2399.525-644.385a3.635,3.635,0,0,0-3.308-1.723,6.464,6.464,0,0,0-1.061.093l2.677-2.6-.708-.692-3.676,3.83c-.032.015-.062.015-.078.031l.492.892a4.176,4.176,0,0,1,2.123-.63,3,3,0,0,1,2.322,1.031,4.041,4.041,0,0,1,1.031,2.676h-7.953a1.24,1.24,0,0,1-.846-.4,1.641,1.641,0,0,1-.477-1.154l-.016-3.061h-1.061l.015,4.338a3.749,3.749,0,0,1-.922,2.584,3.181,3.181,0,0,1-2.462,1.061c.2.446.354.769.462.954a4.071,4.071,0,0,0,2.769-1.307,4.685,4.685,0,0,0,1.215-2.984,1.609,1.609,0,0,0,1.43.954h8.952A7.173,7.173,0,0,0-2399.525-644.385Z" transform="translate(2413.431 649.307)"/><path class="a" d="M-2198.23-612.008a2.452,2.452,0,0,0-1.984-.923c-1.6,0-2.568,1.107-2.568,2.892a3.027,3.027,0,0,0,.63,1.907h-30.652a1.239,1.239,0,0,1-.846-.4,1.639,1.639,0,0,1-.477-1.154l-.016-3.061h-1.062l.015,4.337a3.749,3.749,0,0,1-.922,2.584,3.182,3.182,0,0,1-2.462,1.061c.2.446.354.769.462.954a4.067,4.067,0,0,0,2.768-1.308,4.684,4.684,0,0,0,1.216-2.984,1.609,1.609,0,0,0,1.431.954h32.6c1.6,0,2.538-1.092,2.538-2.892A3,3,0,0,0-2198.23-612.008Zm-.815,3.476a1.262,1.262,0,0,1-1.031.492,1.389,1.389,0,0,1-1.062-.492,2.24,2.24,0,0,1-.492-1.523,2.328,2.328,0,0,1,.447-1.523,1.28,1.28,0,0,1,1.03-.493,1.385,1.385,0,0,1,1.061.493,2.289,2.289,0,0,1,.493,1.523A2.337,2.337,0,0,1-2199.046-608.532Z" transform="translate(2253.14 615.961)"/></g><path class="a" d="M-3476.933-422.141h-5.008l.541-.974h1.437a2.209,2.209,0,0,1-.525-1.484,2.215,2.215,0,0,1,.572-1.561,1.892,1.892,0,0,1,1.469-.649,1.719,1.719,0,0,1,1.437.742l-.448.68a1.2,1.2,0,0,0-.959-.526q-.974,0-.973,1.438c0,.989.4,1.36,1.33,1.36h1.128Z" transform="translate(3482.017 446.483)"/><g transform="translate(7.093 14.296)"><rect class="a" width="1.142" height="1.189" transform="translate(61.156 1.961)"/><rect class="a" width="1.143" height="1.189" transform="translate(71.469 0.911)"/><path class="a" d="M-3260.128-487.334c-.014-1.961-.03-3.289-.03-4h-1.065c0,.726.015,2.054.031,3.983.015,1.668.031,3,.031,3.968a.973.973,0,0,1-1.05,1.05h-2.147a1.2,1.2,0,0,1-.848-.417,1.674,1.674,0,0,1-.5-1.112c-.046-2.918-.062-5.419-.077-7.5h-1.066c.047,3.15.077,5.805.077,7.952a.987.987,0,0,1-.463.849,1.558,1.558,0,0,1-.8.231h-55.332a7.811,7.811,0,0,1-1.312-.077,3.682,3.682,0,0,0,1.3-1.5,3.388,3.388,0,0,0,.371-1.5,2.57,2.57,0,0,0-.8-2.007,2.658,2.658,0,0,0-1.852-.679,2.654,2.654,0,0,0-1.839.679,2.618,2.618,0,0,0-.787,2.007,3.381,3.381,0,0,0,.371,1.5,3.677,3.677,0,0,0,1.3,1.5,7.818,7.818,0,0,1-1.313.077h-4.23a7.764,7.764,0,0,0-.726-3.041,3.162,3.162,0,0,0-2.593-1.621,3.831,3.831,0,0,0-2.254.571,5.5,5.5,0,0,0-2.208,2.27v-1.359h-.972v3.18h-54.947c-.479-.077-.727-.4-.727-.974l-.047-8.037h-1.065l.046,8.176a1.826,1.826,0,0,0,.525,1.376,1.506,1.506,0,0,0,1.1.448h68.055a5.606,5.606,0,0,0,2.331-.525,5.722,5.722,0,0,0,2.332.525h55.578a2.128,2.128,0,0,0,1.929-1.251,1.993,1.993,0,0,0,.386.664,1.485,1.485,0,0,0,1.174.587h2.054a1.878,1.878,0,0,0,2.1-2.007C-3260.1-484.339-3260.111-485.667-3260.128-487.334Zm-79.818,5v-.17c1.112-2.486,2.594-3.659,4.447-3.551.942.062,1.605.695,1.976,1.915a6.784,6.784,0,0,1,.263,1.806Zm14.3-.6c-.231,0-.525-.216-.88-.664a2.7,2.7,0,0,1-.664-1.807,2.133,2.133,0,0,1,.386-1.312,1.364,1.364,0,0,1,1.143-.587,1.392,1.392,0,0,1,1.157.587,2.134,2.134,0,0,1,.385,1.312,2.837,2.837,0,0,1-.632,1.807C-3325.107-483.15-3325.4-482.934-3325.649-482.934Z" transform="translate(3397.704 491.364)"/></g><g transform="translate(0.069 34.438)"><path class="a" d="M-3479.977-245.58H-3480l-1.3-1.946v2.967h-.719v-4.153h.778l1.264,1.964,1.264-1.964h.778v4.153h-.731v-2.979Z" transform="translate(3482.019 248.785)"/><path class="a" d="M-3412.375-245.275a2.109,2.109,0,0,1-2.165-2.142,2.129,2.129,0,0,1,2.178-2.154,2.11,2.11,0,0,1,2.166,2.142A2.13,2.13,0,0,1-3412.375-245.275Zm0-3.626a1.4,1.4,0,0,0-1.4,1.472,1.425,1.425,0,0,0,1.412,1.484,1.405,1.405,0,0,0,1.4-1.472A1.425,1.425,0,0,0-3412.375-248.9Z" transform="translate(3420.162 249.571)"/><path class="a" d="M-3343.2-246.31v1.75h-.73v-4.153h.73v1.727h1.981v-1.727h.731v4.153h-.731v-1.75Z" transform="translate(3355.436 248.785)"/><path class="a" d="M-3281.959-244.891h-.771l-.421-1h-1.964l-.427,1h-.748l1.827-4.183h.677Zm-2.178-3.311-.712,1.661h1.43Z" transform="translate(3302.595 249.115)"/><path class="a" d="M-3215.851-245.58h-.023l-1.3-1.946v2.967h-.718v-4.153h.777l1.264,1.964,1.264-1.964h.777v4.153h-.73v-2.979Z" transform="translate(3239.895 248.785)"/><path class="a" d="M-3146.168-245.58h-.023l-1.3-1.946v2.967h-.718v-4.153h.777l1.263,1.964,1.264-1.964h.778v4.153h-.73v-2.979Z" transform="translate(3176.015 248.785)"/><path class="a" d="M-3075.445-248.061h-2.35v1.08h2.083v.653h-2.083v1.116h2.38v.653h-3.109v-4.153h3.08Z" transform="translate(3112.137 248.785)"/><path class="a" d="M-3021.4-244.56h-1.549v-4.153h1.549a2.071,2.071,0,0,1,2.207,2.071A2.081,2.081,0,0,1-3021.4-244.56Zm0-3.489h-.82v2.824h.82a1.355,1.355,0,0,0,1.442-1.406A1.364,1.364,0,0,0-3021.4-248.049Z" transform="translate(3061.193 248.785)"/><path class="a" d="M-2926.952-247.651a.986.986,0,0,1-.594.932,1.02,1.02,0,0,1,.825,1.014c0,.748-.612,1.145-1.537,1.145h-1.923v-4.153h1.863C-2927.481-248.713-2926.952-248.3-2926.952-247.651Zm-.73.119c0-.338-.261-.534-.73-.534h-1.051v1.1h1C-2928-246.963-2927.683-247.147-2927.683-247.532Zm.232,1.75c0-.356-.279-.564-.855-.564h-1.157v1.139h1.211C-2927.753-245.207-2927.451-245.4-2927.451-245.782Z" transform="translate(2976.15 248.785)"/><path class="a" d="M-2869.675-248.713v4.153h-.73v-4.153Z" transform="translate(2921.354 248.785)"/><path class="a" d="M-2837.574-248.713h.718v4.153h-.611l-2.291-2.955v2.955h-.717v-4.153h.676l2.225,2.872Z" transform="translate(2893.918 248.785)"/><path class="a" d="M-2744.475-244.56l-1.021-1.448h-.914v1.448h-.731v-4.153h1.852c.956,0,1.543.5,1.543,1.317a1.243,1.243,0,0,1-.991,1.264l1.122,1.572Zm-.872-3.489h-1.062v1.394h1.067c.522,0,.855-.273.855-.7C-2744.487-247.811-2744.808-248.049-2745.347-248.049Z" transform="translate(2808.357 248.785)"/><path class="a" d="M-2687.732-244.891h-.772l-.421-1h-1.964l-.427,1h-.748l1.828-4.183h.676Zm-2.178-3.311-.712,1.661h1.43Z" transform="translate(2757.869 249.115)"/><path class="a" d="M-2625.986-247.624c.878.214,1.335.528,1.335,1.222,0,.783-.611,1.246-1.483,1.246a2.557,2.557,0,0,1-1.733-.664l.438-.523a1.913,1.913,0,0,0,1.312.54c.452,0,.736-.208.736-.528,0-.3-.166-.463-.937-.641-.885-.213-1.383-.474-1.383-1.246a1.268,1.268,0,0,1,1.418-1.211,2.3,2.3,0,0,1,1.507.522l-.391.552a1.888,1.888,0,0,0-1.127-.427c-.427,0-.677.219-.677.5C-2626.972-247.956-2626.782-247.814-2625.986-247.624Z" transform="translate(2699.02 249.44)"/><path class="a" d="M-2570.351-246.31v1.75h-.73v-4.153h.73v1.727h1.982v-1.727h.73v4.153h-.73v-1.75Z" transform="translate(2646.964 248.785)"/><path class="a" d="M-2507.931-248.713v4.153h-.729v-4.153Z" transform="translate(2589.743 248.785)"/><path class="a" d="M-2477.19-244.56h-1.548v-4.153h1.548a2.071,2.071,0,0,1,2.208,2.071A2.081,2.081,0,0,1-2477.19-244.56Zm0-3.489h-.818v2.824h.818a1.354,1.354,0,0,0,1.442-1.406A1.364,1.364,0,0,0-2477.19-248.049Z" transform="translate(2562.314 248.785)"/><path class="a" d="M-2387.508-247.624c.878.214,1.335.528,1.335,1.222,0,.783-.612,1.246-1.485,1.246a2.56,2.56,0,0,1-1.732-.664l.439-.523a1.914,1.914,0,0,0,1.312.54c.45,0,.736-.208.736-.528,0-.3-.167-.463-.938-.641-.884-.213-1.383-.474-1.383-1.246a1.269,1.269,0,0,1,1.419-1.211,2.3,2.3,0,0,1,1.507.522l-.392.552a1.887,1.887,0,0,0-1.128-.427c-.427,0-.676.219-.676.5C-2388.493-247.956-2388.3-247.814-2387.508-247.624Z" transform="translate(2480.407 249.44)"/><path class="a" d="M-2331.052-245.895h-.825v1.335h-.73v-4.153h1.639a1.4,1.4,0,0,1,1.578,1.394A1.466,1.466,0,0,1-2331.052-245.895Zm.024-2.154h-.848v1.5h.848c.552,0,.9-.3.9-.748C-2330.132-247.794-2330.483-248.049-2331.028-248.049Z" transform="translate(2428.356 248.785)"/><path class="a" d="M-2282.1-244.891h-.771l-.422-1h-1.964l-.427,1h-.748l1.828-4.183h.677Zm-2.177-3.311-.712,1.661h1.43Z" transform="translate(2386.029 249.115)"/><path class="a" d="M-2221.188-245.275a2.09,2.09,0,0,1-2.113-2.142,2.1,2.1,0,0,1,2.142-2.154,2.165,2.165,0,0,1,1.625.647l-.469.54a1.651,1.651,0,0,0-1.162-.516,1.4,1.4,0,0,0-1.371,1.472,1.406,1.406,0,0,0,1.371,1.484,1.63,1.63,0,0,0,1.193-.54l.469.475A2.142,2.142,0,0,1-2221.188-245.275Z" transform="translate(2328.155 249.571)"/><path class="a" d="M-2157.6-248.061h-2.349v1.08h2.082v.653h-2.082v1.116h2.379v.653h-3.11v-4.153h3.08Z" transform="translate(2270.749 248.785)"/><path class="a" d="M-2075.98-245.275a2.091,2.091,0,0,1-2.113-2.142,2.1,2.1,0,0,1,2.142-2.154,2.16,2.16,0,0,1,1.625.647l-.467.54a1.654,1.654,0,0,0-1.163-.516,1.4,1.4,0,0,0-1.371,1.472,1.406,1.406,0,0,0,1.371,1.484,1.631,1.631,0,0,0,1.193-.54l.469.475A2.145,2.145,0,0,1-2075.98-245.275Z" transform="translate(2195.043 249.571)"/><path class="a" d="M-2012.39-248.061h-2.35v1.08h2.083v.653h-2.083v1.116h2.379v.653h-3.109v-4.153h3.08Z" transform="translate(2137.636 248.785)"/><path class="a" d="M-1956.993-248.713h.718v4.153h-.611l-2.291-2.955v2.955h-.718v-4.153h.677l2.225,2.872Z" transform="translate(2086.692 248.785)"/><path class="a" d="M-1897.342-244.56h-.737v-3.477h-1.316v-.676h3.371v.676h-1.318Z" transform="translate(2031.231 248.785)"/><path class="a" d="M-1839.164-244.56l-1.021-1.448h-.914v1.448h-.729v-4.153h1.851c.955,0,1.543.5,1.543,1.317a1.244,1.244,0,0,1-.99,1.264l1.121,1.572Zm-.872-3.489h-1.062v1.394h1.068c.522,0,.854-.273.854-.7C-1839.177-247.811-1839.5-248.049-1840.037-248.049Z" transform="translate(1978.46 248.785)"/><path class="a" d="M-1779.4-248.061h-2.349v1.08h2.083v.653h-2.083v1.116h2.38v.653h-3.11v-4.153h3.079Z" transform="translate(1924.052 248.785)"/></g></g><path class="b" d="M-3375.355-989.457c36.355-16.169,87.507-17.289,126.846.054-38.835-6.739-90.277-8.68-126.846-.054" transform="translate(3384.31 1002)"/></g></svg>