<?xml version="1.0"?>
<svg xmlns="http://www.w3.org/2000/svg" xmlns:xlink="http://www.w3.org/1999/xlink" xmlns:svgjs="http://svgjs.com/svgjs" version="1.1" width="512" height="512" x="0" y="0" viewBox="0 0 511.448 511.448" style="enable-background:new 0 0 512 512" xml:space="preserve" class=""><g><path xmlns="http://www.w3.org/2000/svg" d="m247.283 239.148-96-74.667c-13.775-10.714-33.893-.864-33.893 16.577v149.333c0 17.563 20.25 27.186 33.893 16.577l96-74.667c10.795-8.397 10.81-24.746 0-33.153zm-87.893 48.305v-63.458l40.795 31.729z" fill="#ffffff" data-original="#000000" style="" class=""/><path xmlns="http://www.w3.org/2000/svg" d="m309.057 160.058c-11.598 0-21 9.402-21 21v149.333c0 11.598 9.402 21 21 21s21-9.402 21-21v-149.333c0-11.598-9.402-21-21-21z" fill="#ffffff" data-original="#000000" style="" class=""/><path xmlns="http://www.w3.org/2000/svg" d="m383.724 160.058c-11.598 0-21 9.402-21 21v149.333c0 11.598 9.402 21 21 21s21-9.402 21-21v-149.333c0-11.598-9.402-21-21-21z" fill="#ffffff" data-original="#000000" style="" class=""/></g></svg>
