<svg xmlns="http://www.w3.org/2000/svg" width="151.696" height="31.932" viewBox="0 0 151.696 31.932"><defs><style>.a{fill:#fff;}</style></defs><g transform="translate(0 0)"><path class="a" d="M244.806,268.561a21.631,21.631,0,0,1,2.243-1.275,5.6,5.6,0,0,1,1.535-.378,5.931,5.931,0,0,0,.755-.094,10.521,10.521,0,0,0,.944-1.417h-1.558c-.047,0-2.81-.118-2.81-.731,0-.425.8-.709,1.18-.709.354,0,1.039.5,1.3.614a6.464,6.464,0,0,0,.732-1.2c0-.614-.661-.944-1.181-.944a3.677,3.677,0,0,0-3.376,3.447c0,.732,1.441.732,1.771.874C245.774,267.027,244.759,267.9,244.806,268.561Z" transform="translate(-244.57 -258.15)"/><path class="a" d="M305.339,257.9c.118,0,1.228-.708,1.228-.992a4.114,4.114,0,0,0-1.251-1.133,4.161,4.161,0,0,0-1.181,1.133C304.135,257.125,305.245,257.9,305.339,257.9Z" transform="translate(-280.431 -254.15)"/><path class="a" d="M334.415,256.486a9.359,9.359,0,0,0-1.275-1.062,8.51,8.51,0,0,0-1.181,1.109l1.181.968A9.648,9.648,0,0,0,334.415,256.486Z" transform="translate(-297.183 -253.935)"/><path class="a" d="M303.631,262.11l.449-2.361-.4-3.258c0-.118,0-.165.048-.213.307-.378.684-.9.921-1.18a3.164,3.164,0,0,0,.425-.614c-.448-.259-.9-.543-1.3-.8a3.557,3.557,0,0,1-.991-.709,1.411,1.411,0,0,1-.166-.755,12.536,12.536,0,0,0-1.322,2.266c.26.213.638.4.684.543a27.427,27.427,0,0,1,.638,3.14c.095.52.212,1.464.212,1.582a3.966,3.966,0,0,1-.071.567h-3.093a.577.577,0,0,1-.614-.543c-.118-1.889-.378-4.132-.519-5.642-.024-.331-.142-1.062-.189-1.582l-1.44,1.983.85,5.784h-4.085c.236-.5.567-.9.755-1.3a2.111,2.111,0,0,0,.047-.519c0-.449-.213-1.913-1.109-1.913-1.252,0-3.188,1.889-3.966,2.88-.142.189-.071.59-.118.85H286.3c.189-.638.708-1.464.708-1.558,0-1.015-2.03-2.5-2.88-2.5-1.511,0-5.312,3.4-7.154,4.061H276.9c.071,0,.118-.166.165-.166-.118,0-.26.166-.4.166a1.258,1.258,0,0,1-.755-.4,12.141,12.141,0,0,0,.637-2.55,13.946,13.946,0,0,0-1.534,1.676c-.047.047.023,1.275-.4,1.275h-8.5c-.236,0-.448-.189-.684-.236-.095-.024-.212-.118-.212-.165-.236-1.558-.52-4.462-.685-6.375-.047-.543-.094-1.133-.165-1.676-.331.354-.779.8-1.086,1.2-.094.094-.26.283-.26.4l.827,8.735h10.1c.236,0,.756-.519.874-.661.047.236.4.661.708.661h21.58c.307-.354.567-.755.8-1.086.189.331.071.9.378,1.086H303.3C303.418,262.2,303.513,262.11,303.631,262.11Zm-19.22-1.983H279.43c1.275-.614,2.55-1.818,3.636-1.818.378,0,2.03.637,2.03,1.369C285.1,259.984,284.482,260.15,284.411,260.126Zm8.453-.047a4.161,4.161,0,0,1-.944.236c-.26,0-1.464-.354-1.464-.944,0-.449,1.393-.9,1.582-.9a1.733,1.733,0,0,1,.5.165,1.443,1.443,0,0,1,.5.708,1.674,1.674,0,0,1,.071.543C293.053,259.914,292.958,260.008,292.864,260.079Z" transform="translate(-255.678 -251.792)"/><path class="a" d="M388.021,265.488a5.13,5.13,0,0,1,.8,1.652.466.466,0,0,1-.142.283h-6.256a2.419,2.419,0,0,1-1.535-.874,2.543,2.543,0,0,1-.118-.732c0-.189.165-1.322.165-1.771l-.094-.07c-.519.26-1.062,2.526-1.062,3.376a2.981,2.981,0,0,0,.024.472,2.2,2.2,0,0,0,1.652,1.464c.094,0,.142.071.26.071h7.271a8.45,8.45,0,0,0,1.016-3.4,3.662,3.662,0,0,0-1.016-2.172Z" transform="translate(-325.973 -258.971)"/><path class="a" d="M389.286,257.8l1.346.708a7.6,7.6,0,0,0,1.015-1.133l-1.393-.708a10.472,10.472,0,0,1-.874.661c-.118,0-1.062-.661-1.18-.661-.165,0-.8.732-1.063,1.062a10.579,10.579,0,0,0,1.464.732A3.029,3.029,0,0,1,389.286,257.8Z" transform="translate(-330.402 -254.686)"/><path class="a" d="M412.474,259.793,412,253.7a11.207,11.207,0,0,0-1.369,2.314l.874,7.295A5.633,5.633,0,0,0,412.474,259.793Z" transform="translate(-344.547 -252.899)"/><path class="a" d="M419.292,264.678l-.661,1.912c.142.071,1.841,1.464,1.841,2.007,0,1.3-3.163,3.588-4.037,3.588a17.359,17.359,0,0,1-2.172-.566c-.118,0-.118.024-.189.071v.212a11.789,11.789,0,0,0,3.966,1.511c2.172,0,3.329-3.872,3.329-5.147A4.349,4.349,0,0,0,419.292,264.678Z" transform="translate(-346.62 -259.507)"/><path class="a" d="M448.075,260.716l3.589,1.3c.354-.543.732-1.109,1.039-1.652a1.532,1.532,0,0,0,.165-.5,2.449,2.449,0,0,0-.071-.567c-.236-.944-.661-2.125-.9-2.88-.024-.071-.095-.118-.142-.165a4.906,4.906,0,0,0-2.148.708,4.765,4.765,0,0,0-2.078,2.573,4.356,4.356,0,0,1-.307.779h-8.641c-.236,0-.449-.189-.685-.236-.094-.024-.213-.118-.213-.165-.236-1.558-.519-4.462-.684-6.375-.047-.543-.095-1.133-.166-1.676-.33.354-.779.8-1.086,1.2-.094.094-.259.283-.259.4l.826,8.735H446.99C447.556,261.708,447.391,261,448.075,260.716Zm1.086-2.172a3.4,3.4,0,0,1,.59-.283,2.076,2.076,0,0,1,.52-.118c.118,0,.165-.023.26.071a2.069,2.069,0,0,1,.591,1.346L449,258.71C449,258.662,449.114,258.592,449.162,258.544Z" transform="translate(-359.513 -251.792)"/><path class="a" d="M487.51,283.215a7.053,7.053,0,0,1-1.3-.165c-.094-.024-.236-.118-.236-.236s0-.047.047-.095c.095-.094.189-.212.236-.212a2.112,2.112,0,0,1,.519-.166.558.558,0,0,1,.283.071.543.543,0,0,1,.212.142c0,.047.071.118.071.118.142-.189.331-.425.331-.543s-.071-.118-.071-.165l-.189-.189c-.094,0-.165-.071-.283-.071a1.976,1.976,0,0,0-.473.118,2.024,2.024,0,0,0-.472.307,1.949,1.949,0,0,0-.685,1.417c.259.189.685.165,1.015.307-.26.212-.732.661-.732.779v.166a4.072,4.072,0,0,1,2.29-.944,6.433,6.433,0,0,0,.354-.685C487.864,283.215,487.628,283.215,487.51,283.215Z" transform="translate(-389.622 -269.758)"/><path class="a" d="M485.124,255.7c.685.378,1.535.85,2.243,1.3a4.2,4.2,0,0,1,.284-.567,7.326,7.326,0,0,1,2.054,2.149c-.378.33-1.605,1.534-2.267,1.534a.67.67,0,0,1-.566-.236,2.058,2.058,0,0,0-.354-.472,3.16,3.16,0,0,0-.213.685c-.024.33-.047.731-.047.826,0,.33.094,1.039.354,1.18h5.029a13.617,13.617,0,0,0,.142-1.558,3.326,3.326,0,0,0-.5-1.889c-.024-.07-.165-.236-.165-.33,0-.118.567-.9.756-1.393a12.5,12.5,0,0,0,.425-1.747.906.906,0,0,0,.4.165.333.333,0,0,0,.141-.024,16.405,16.405,0,0,0,1.039-1.652c0-.189-1.11-.755-1.11-.755a2.976,2.976,0,0,1-.637-.543,1.541,1.541,0,0,1-.165-.685l-1.417,2.2a1.721,1.721,0,0,1,.472,1.275,4.241,4.241,0,0,1-.5,2.172,13.63,13.63,0,0,0-4.037-4.25,1.139,1.139,0,0,1-.047.52H485.03a11.016,11.016,0,0,0-.236,1.156A1.574,1.574,0,0,0,485.124,255.7Zm5.525,4.533a9.629,9.629,0,0,1-1.653,0,6.617,6.617,0,0,0,1.11-1.062A11.43,11.43,0,0,1,490.649,260.232Z" transform="translate(-389.196 -251.685)"/><path class="a" d="M512.738,256.016l.874,7.295a5.634,5.634,0,0,0,.967-3.518l-.471-6.091A11.213,11.213,0,0,0,512.738,256.016Z" transform="translate(-406.019 -252.899)"/><path class="a" d="M530.751,254.883a9.283,9.283,0,0,0,1.369.732,9.4,9.4,0,0,0,1.063-1.086l-1.44-.827c-.26.213-.779.756-.85.756a6.356,6.356,0,0,1-1.228-.756c-.354.425-.779.827-.968,1.133a7.411,7.411,0,0,0,1.3.732A4.071,4.071,0,0,0,530.751,254.883Z" transform="translate(-415.627 -252.899)"/><path class="a" d="M536.472,262.74h3.377c.118,0,.212-.094.331-.094l.448-2.361-.4-3.258c0-.118,0-.165.047-.213.307-.378.685-.9.921-1.18a3.2,3.2,0,0,0,.425-.614c-.449-.259-.9-.543-1.3-.8a3.567,3.567,0,0,1-.992-.709,1.414,1.414,0,0,1-.165-.755,12.517,12.517,0,0,0-1.322,2.266c.26.212.638.4.685.543a27.46,27.46,0,0,1,.637,3.14c.094.52.212,1.464.212,1.582a3.9,3.9,0,0,1-.071.567h-3.475c-.271,0-.5-.026-.563-.307-.448-1.818-.637-3.9-.944-5.5-.33.567-1.015,1.558-1.015,1.676a5.207,5.207,0,0,0,.189.567c-.472.307-.992.638-1.464.9-.331.189-1.157.685-1.322,1.18-.236.708-.708,1.936-.708,2.031v.259l2.857.567c.732-.071.708-1.228,1.322-1.511.141.472.189.992.33,1.44a1.057,1.057,0,0,0,.378.472.329.329,0,0,0,.236.118h1.346Zm-2.361-2.6h-1.062a13.409,13.409,0,0,1-1.44-.354c.472-.26,1.487-.449,1.818-1.441a.615.615,0,0,1,.354-.33c.142.567.331,1.653.331,1.771Z" transform="translate(-416.413 -252.328)"/><path class="a" d="M568.768,262.2H580.1l.543-2.219a.805.805,0,0,0-.165-.449,28.127,28.127,0,0,0-3.943-3.8c1.393-.448,2.762-.9,4.084-1.346a10.083,10.083,0,0,0,.52-1.865c-1.936.591-3.9,1.2-5.784,1.771-.212.779-.661,2.29-.661,2.408a5.668,5.668,0,0,0,.873,1.086c.212.236.5.5.638.638.047-.094.212-.236.259-.331l2.644,2.219H566.974c-.236,0-.449-.189-.684-.236-.095-.024-.213-.118-.213-.165-.235-1.558-.519-4.462-.684-6.375-.047-.543-.095-1.133-.165-1.676-.331.354-.779.8-1.086,1.2-.094.094-.26.283-.26.4l.826,8.735h4.061Z" transform="translate(-436.809 -251.792)"/><path class="a" d="M608.448,272.964c-.118,0-1.7-.33-1.817-.33-.071,0-.331-.047-.331.283A12.462,12.462,0,0,0,610.384,274c2.361,0,3.66-3.943,3.66-6a7.426,7.426,0,0,0-.165-1.157,3.506,3.506,0,0,0-.189-.59c-.094-.283-.755-1.7-1.488-1.7-1.133,0-2.408,2.573-2.455,3a4.5,4.5,0,0,0,0,.567c0,.968.118,1.723,1.346,1.723.92,0,1.464-.307,1.936-1.605h.047a2.037,2.037,0,0,1,.118.638C613.194,270.674,609.511,272.964,608.448,272.964Zm3.164-5.052c-.118,0-1.157-.142-1.157-.519,0-.5.921-.755,1.086-.755a.982.982,0,0,1,.945,1.039A1.528,1.528,0,0,1,611.612,267.911Z" transform="translate(-462.347 -259.436)"/><path class="a" d="M254.7,305.056v5.072c0,3.229-1.15,3.8-2.519,3.8-1.166,0-2.519-.507-2.519-3.652v-4.734c0-.828-.051-.98-.355-.98-.338,0-1.5.084-1.809.135.034.355.051,1.048.051,2.181v3.465c0,3.634,1.538,5.106,4.4,5.106,2.063,0,4.565-.676,4.565-5.41v-2.4c0-1.4.017-2.4.051-3.077-.338,0-1,.017-1.488.068C254.835,304.667,254.7,304.735,254.7,305.056Z" transform="translate(-246.333 -283.522)"/><path class="a" d="M280.1,304.87a.436.436,0,0,0-.389-.3,11.918,11.918,0,0,0-1.775.2l.135.355c-.643,1.539-3.28,7.827-4.159,9.889v.068a6.447,6.447,0,0,0,1.488.22c.27,0,.405-.085.473-.237.22-.541.71-1.792,1.1-2.773H280.8c.389.963.626,1.607.93,2.469.169.456.3.541.575.541a10.312,10.312,0,0,0,1.893-.2v-.068c-.338-.71-.744-1.775-1.437-3.5C282.167,310.06,280.882,306.73,280.1,304.87Zm-2.654,6.018c.575-1.453,1.048-2.789,1.471-3.9.186.541.693,1.808,1.47,3.9Z" transform="translate(-262.238 -283.522)"/><path class="a" d="M308.491,314a7.935,7.935,0,0,1-1.572-.119v-3.313h2.57c.592,0,.963-.22,1.116-1.4h-3.686v-3.026h1.758a6,6,0,0,0,1.589-.1,2.157,2.157,0,0,0,.507-1.3h-4.108a9.636,9.636,0,0,0-1.911.236c.051.71.051,1.319.051,2.131v7.81l.254.321a19.427,19.427,0,0,0,3.009.169,17.263,17.263,0,0,0,2.3-.085,1.837,1.837,0,0,0,.9-1.352l-.034-.034C310.418,314,309.184,314,308.491,314Z" transform="translate(-280.804 -283.624)"/><path class="a" d="M339.5,308.832c-1.572-.9-2.13-1.3-2.13-2.1,0-.744.643-1.166,1.539-1.166a4.2,4.2,0,0,1,1.657.422c.592.034.862-.659.862-1.082A3.948,3.948,0,0,0,339,304.1h-.017c-2.789,0-3.6,1.842-3.6,2.992,0,1.014.338,2.1,2.3,3.161,1.708.93,2.1,1.353,2.1,2.1,0,.862-.71,1.3-1.724,1.3a4.788,4.788,0,0,1-2.435-.795,1.941,1.941,0,0,0-.406,1.082c0,.22.1.389.389.575a4.324,4.324,0,0,0,2.468.659c1.995,0,3.821-1.133,3.821-3.229C341.888,310.337,341.025,309.695,339.5,308.832Z" transform="translate(-299.139 -283.241)"/><path class="a" d="M360.495,304.48a20.842,20.842,0,0,0-2.773.2c.068.778.068,1.471.068,2.283v7.979c0,.254.119.3.372.3a11.038,11.038,0,0,0,1.792-.135c-.017-.338-.051-.829-.051-2.012V305.85a4.906,4.906,0,0,1,.676-.051,1.926,1.926,0,0,1,2.08,2.113c0,1.707-1.049,2.147-1.893,2.147a2.669,2.669,0,0,1-.541-.051,1.392,1.392,0,0,0,.557,1.15,2.255,2.255,0,0,0,.862.135,3.341,3.341,0,0,0,3.211-3.381C364.856,305.359,363.064,304.48,360.495,304.48Z" transform="translate(-312.693 -283.47)"/><path class="a" d="M382.854,304.87a.437.437,0,0,0-.389-.3,11.927,11.927,0,0,0-1.775.2l.135.355c-.642,1.539-3.28,7.827-4.159,9.889v.068a6.447,6.447,0,0,0,1.488.22c.271,0,.406-.085.474-.237.219-.541.71-1.792,1.1-2.773h3.821c.389.963.625,1.607.93,2.469.169.456.3.541.575.541a10.308,10.308,0,0,0,1.893-.2v-.068c-.338-.71-.744-1.775-1.437-3.5C384.917,310.06,383.632,306.73,382.854,304.87Zm-2.654,6.018c.575-1.453,1.049-2.789,1.471-3.9.186.541.693,1.808,1.471,3.9Z" transform="translate(-324.098 -283.522)"/><path class="a" d="M411.705,305.553a5.744,5.744,0,0,1,2.231.456c.541.085.93-.49.9-1.065a5.093,5.093,0,0,0-3.11-.845c-3.347,0-6,2.147-6,5.646,0,3.229,2.079,5.427,5.934,5.427a4.876,4.876,0,0,0,2.451-.575,2.122,2.122,0,0,0,.558-1.335l-.051-.034a8.074,8.074,0,0,1-2.468.423,3.851,3.851,0,0,1-4.159-4.058C407.986,306.888,409.66,305.553,411.705,305.553Z" transform="translate(-341.59 -283.241)"/><path class="a" d="M437.533,314a7.94,7.94,0,0,1-1.572-.119v-3.313h2.57c.592,0,.964-.22,1.116-1.4h-3.686v-3.026h1.758a6,6,0,0,0,1.589-.1,2.155,2.155,0,0,0,.507-1.3h-4.108a9.628,9.628,0,0,0-1.911.236c.051.71.051,1.319.051,2.131v7.81l.254.321a19.428,19.428,0,0,0,3.009.169,17.245,17.245,0,0,0,2.3-.085,1.837,1.837,0,0,0,.9-1.352l-.034-.034C439.46,314,438.227,314,437.533,314Z" transform="translate(-358.493 -283.624)"/><path class="a" d="M469.929,304.87a.437.437,0,0,0-.389-.3,11.918,11.918,0,0,0-1.775.2l.135.355c-.642,1.539-3.28,7.827-4.159,9.889v.068a6.447,6.447,0,0,0,1.488.22c.271,0,.406-.085.474-.237.22-.541.71-1.792,1.1-2.773h3.82c.389.963.626,1.607.93,2.469.169.456.3.541.575.541a10.3,10.3,0,0,0,1.893-.2v-.068c-.338-.71-.744-1.775-1.437-3.5C471.992,310.06,470.707,306.73,469.929,304.87Zm-2.654,6.018c.575-1.453,1.048-2.789,1.47-3.9.186.541.694,1.808,1.471,3.9Z" transform="translate(-376.521 -283.522)"/><path class="a" d="M498.748,305.587a5.807,5.807,0,0,1,2.536.558.947.947,0,0,0,1.015-1.065,5.539,5.539,0,0,0-3.5-.981c-3.313,0-6,2.13-6,5.612,0,4.209,3.009,5.461,5.849,5.461a9.132,9.132,0,0,0,2.316-.355,7.257,7.257,0,0,0,1.336-.845v-3.82c0-.355-.1-.456-.355-.456a15.182,15.182,0,0,0-1.826.254c.033.406.068.794.068,1.5v2.215a3.747,3.747,0,0,1-1.184.185c-1.978,0-3.939-1.335-3.939-4.277C495.062,306.939,496.668,305.587,498.748,305.587Z" transform="translate(-394.014 -283.241)"/><path class="a" d="M527.285,314a7.94,7.94,0,0,1-1.572-.119v-3.313h2.57c.592,0,.964-.22,1.116-1.4h-3.686v-3.026h1.758a6.006,6.006,0,0,0,1.589-.1,2.155,2.155,0,0,0,.507-1.3H525.46a9.627,9.627,0,0,0-1.911.236c.051.71.051,1.319.051,2.131v7.81l.254.321a19.414,19.414,0,0,0,3.008.169,17.246,17.246,0,0,0,2.3-.085,1.837,1.837,0,0,0,.9-1.352l-.034-.034C529.212,314,527.979,314,527.285,314Z" transform="translate(-412.528 -283.624)"/><path class="a" d="M551.979,305.124v4.717c0,.845-.017,1.5.084,2.806a30.715,30.715,0,0,0-1.792-3.009c-1.217-1.876-2.6-3.989-3.145-4.768-.169-.186-.3-.3-.473-.3-.3,0-1.758.084-2.08.135v.084l.3.423v7.016c0,1.42-.017,2.4-.051,3.077a7.784,7.784,0,0,0,1.352-.068c.271-.051.372-.1.372-.456v-4.43c0-.862.017-1.741-.085-3.449.693,1.3,1.184,2.249,2.08,3.668,1.336,2.063,2.2,3.381,3.077,4.6a.45.45,0,0,0,.423.237,7.066,7.066,0,0,0,1.606-.271v-7.455c0-1.4.017-2.384.051-3.111-.389,0-.845.017-1.37.068C552.1,304.667,551.979,304.735,551.979,305.124Z" transform="translate(-425.186 -283.522)"/><path class="a" d="M579.866,305.553a5.746,5.746,0,0,1,2.231.456c.541.085.93-.49.9-1.065a5.093,5.093,0,0,0-3.11-.845c-3.348,0-6,2.147-6,5.646,0,3.229,2.079,5.427,5.934,5.427a4.873,4.873,0,0,0,2.451-.575,2.12,2.12,0,0,0,.557-1.335l-.05-.034a8.078,8.078,0,0,1-2.469.423,3.851,3.851,0,0,1-4.159-4.058C576.147,306.888,577.82,305.553,579.866,305.553Z" transform="translate(-442.83 -283.241)"/><path class="a" d="M608.9,304.735a5.081,5.081,0,0,0-1.42-.169c-.321.592-1.944,3.314-2.671,4.429-.727-1.217-1.572-2.688-2.164-3.634-.423-.71-.541-.795-.846-.795a8.041,8.041,0,0,0-1.842.3v.051c1,1.454,2.5,3.736,3.415,5.308a1.532,1.532,0,0,1,.135.778V315c0,.254.05.3.3.3a8.947,8.947,0,0,0,1.86-.135c-.017-.372-.05-.879-.05-2.029v-2.316a1.435,1.435,0,0,1,.186-.709c.186-.288,2.688-3.99,3.111-4.683C609.142,305.056,609.175,304.837,608.9,304.735Z" transform="translate(-458.532 -283.522)"/></g></svg>